<svg xmlns="http://www.w3.org/2000/svg" width="80" height="80">
    <g fill="none" fill-rule="evenodd" font-weight="400" font-size="21.333"
       font-family="Londrina Sketch" letter-spacing="0" word-spacing="0">
        <path style="line-height:1;font-variant-ligatures:normal;font-variant-caps:normal;font-variant-numeric:normal;font-feature-settings:normal;text-align:start"
              d="M12.68 45.5l.116-.024q.046 0 .092.07v.07l-.092.577q0 .092.023.115l.046.416-.023.347q.023.023.023.323l-.023.694-.023.069q.023.023.023.092-.023 0-.046.023v.047q-.023-.023-.139-.023v-.024q-.023.024-.092.024l-.116.023q-.023-.023-.092-.023l-.462.023h-.162q-.485 0-.947-.116l-.278-.046-.392-.093v-.023l-.185-.092h-.047q0-.046-.138-.07 0-.022-.023-.046l-.231-.092q0-.023-.185-.139v-.046q-.139-.023-.185-.208h-.046v-.046q-.578-.277-.578-1.225l.023-.485q0-3.05-1.617-3.697-.116-.07-.44-.093-.67-.046-.716-.531 0-.485.07-.855L5.77 40h-.023q-.092-.162-.092-.624 0-.462.092-.6.07-.14.393-.14l.44.024q.923 0 1.386-.763.462-.762.462-1.733l-.046-1.386q0-2.727 3.096-2.727h.762q.44 0 .601.162-.046.23-.046.323v1.34l-.046.232v.462q0 .162.023.185h.046q0 .161-.139.208l-.208.069v.023l-.3.023-.046.046q-.693 0-.693 1.34v.67l.023.763-.046.878q0 .07-.047.393h-.023q0 .208-.023.231l-.046.093q-.046.254-.185.392l-.023.093h-.046l-.07.092h-.046q-.023.023-.023.047h-.046l-.208.161.115.093h.047q0 .023.046.069l.023.046q.6.532.6 1.918v.6q0 1.988 1.156 2.45v.023q.023.024.07.024zM10 47.695q.07.046.485.208v.023l.139.023v.023q1.086.162 1.502.162v-.023h.092q.07-.023.093-.023l-.046-.14.023-.022q.161.115.277.115l.023-.3q-.023-.023-.023-.231l.023-.555-.046-.346q0-.023.07-.231v-.67l-.532-.116-.254-.162-.232-.23-.092-.186q-.023 0-.023-.046l-.023-.185h-.023q0-.07-.023-.092h-.023q0-.116-.024-.139l-.092-.277-.046-.3q.023-.116.023-.37l-.023-1.294q0-.093-.046-.324l-.14-.74q-.022 0-.068-.045-.047-.07-.047-.093v-.046q-.046 0-.115-.139v-.069q-.139 0-.393-.254l-.116-.07-.092-.115-.07-.023q-.022-.023-.046-.023v-.046q-.023-.024-.046-.024v-.115l.07-.093q.647-.208.647-.323h.046l.185-.231q.092-.093.092-.3l.046-.14h.023q.023-.022.023-.16l.093-.648v-.37l-.023-.185.023-.046-.023-1.086.07-1.016.045-.14q.162-.369.208-.369l.162-.115h.046q.208-.139.278-.139v-.023q.023 0 .346-.046v-.023q.07 0 .093-.024l.046-.161-.023-.278q0-.208.046-.254l-.023-.046.023-.208h-.023q0-.023.023-.046v-.254q0-.231-.023-.255v-.462q-.023-.046-.023-.138 0-.093-.023-.093l-.231.023q-.024-.023-.093-.023h-.485l-.023-.023-.116.023h-.416l-.254.023-.023-.023v.023q-.023-.023-.208 0-.07 0-.347.093-.277.092-.439.092l-.23.093h-.047l-.208.208H9.33l-.277.277v.046l-.093.07-.162.53q-.023.07-.023.209v.947h-.069v.116q.023 0 .023.046l-.07.763v.208q0 .115.024.138h.023v.093l-.023.485.023.092h-.023l.046.278-.185.554-.046.07q-.046.207-.115.207v.047q-.024 0-.047.023v.046l-.161.162h-.047q0 .023-.046.069h-.046q-.231.231-.74.44l-.23.045-.278.023q-.162 0-.185.023l-.3.047-.093-.023q-.069.069-.069.23l-.023.67q-.046.324-.046.347l.023.463-.023.323q0 .3.323.3.324 0 .393.024l.3.046.647.23.07.093h.046v.046q.046 0 .208.162h.046l.162.162v.046q.07 0 .07.139h.022q.023.023.023.115l.208.44q.07 0 .07.184l.023 1.156.023.115-.046.416v.809q.092.092.138.346h-.046q.07.232.116.278l-.046.023v.07l.069-.024v.07q-.07.023-.07.092.116.277.37.531 0 .023-.023.07 0 .023.023.046l.023-.046.023.023q.278.138.532.393l.254.277q-.023 0-.023-.023zm0 0v-.046l.023.046z"
              fill="#fff"/>
        <path style="line-height:1;font-variant-ligatures:normal;font-variant-caps:normal;font-variant-numeric:normal;font-feature-settings:normal;text-align:start"
              d="M29.377 48.041l-2.541.093h-.393q-.948 0-.948-.393 0-.092.047-.092l.092.046.046-.046q-.162-.278-.462-.81l-.485-.9q-.44-.786-.809-1.78l-1.41-2.01v1.11q0 2.98.162 4.297l-.046.023.231.208q-.115 0-.162.139-.046.138-.092.162-.046-.047-.093-.047l-.115.047q-.023 0-.093-.07l-1.779.093h-.277l-.624-.047h-.231l-.3-.046q-.093 0-.093.046v.024q-.046-.047-.046-.07l-.046.093-.093-.116-.092.07-.046-.185q.115-.647.115-.81 0-.16-.046-.438-.046-.277-.046-.462l.023.023q.023 0 .023.046.046-.046.046-.139v-.762l.046-2.288-.185-8.064q0-1.71.024-2.981l.277-.324.115.208q.024.023.208.023h.185q.3 0 1.71-.208l-.046.047q.416.069.878.069l1.664-.046h.323q.278 0 .324.023l.07-.07q-.07 0-.255-.046 1.687.139 3.605 1.271l-.023.046q.762.532 1.34 2.219.023-.023.023-.116.07.532.07 1.248 0 3.073-1.803 4.182-.347.162-1.04.347l-.832.231q.324.578.855 1.363l.924 1.318q1.549 2.218 1.71 2.957.07.324.555 1.156v.046q.046 0 .046.046.023.023.046.023l-.208.07h-.046zm-8.988-.185l.831.07q.208 0 .463-.07h-.047q.208-.138.532-.207l.115-3.605q0-.3-.023-.462l-.069.115q-.023-.023-.023-.208v-.23q0-1.826.138-2.265.07.138.07.254v.046q.138.046.3.324.162.254.208.3l-.046.046q1.41 2.15 2.01 3.466.231.278.486.994.277.716.647 1.109.392.393 1.04.393.646 0 1.524-.139l-.046-.092h.093l.416.092q.092 0 .138-.046-.046-.07-.138-.07-.07 0-.07-.022 0-.024.07-.093l-.416-.855v-.07q0-.184-.416-.808-.393-.624-.486-.878-.254-.347-.785-1.27-.509-.925-.901-1.387.161.323.254.416-.116-.162-.416-.486-.277-.323-.44-.508-.415-.462-.554-.994.023.023.07.023.554 0 1.132-.37.6-.369 1.017-.947h.092q.809-1.086 1.155-1.802.37-.716.37-1.594l-.023-.278h-.092v-.161q0-1.271-2.15-2.404l.024-.023q.115.046.346.116.509.208.67.37-1.594-1.225-2.195-1.387-.97-.208-3.05-.208t-2.888.116v.069l.046.208.115-.046.07.092.554-.07q.023 0 .07.024h.069q-.07.046-.231.07-.347.045-.485.3v.138q0 .324-.139.74-.162 3.512-.162 4.506 0 .993.116 2.403.115 1.41.115 1.502v.508l-.046 2.172q0 .878.116 1.48.069.045.069.092 0 .046-.139.9h-.023q-.046-.022-.092-.115l.07.532q.091.161.415.161h.116q.207 0 .23.023l-.022.024zm1.871-12.824l1.063.023q.555 0 .809-.07-.116-.115-.116-.138.07 0 .37.254.324.231.647.624.324.37.3.555 0 .185-.023.3.024.023.024.254 0 .647-.832 1.225-.07.023-.254.023-.185 0-.255.139-.416-.116-.762-.116l-.878.023h-.278q-.138 0-.138-.115v-.07q0-.069-.116-.069.139-.23.139-.323 0-.116-.023-.139.023-.023.023-.231v-.947q0-.67-.116-.763l-.046-.416zm.185 2.98l1.063-.069q.347 0 .37.024 0-.232.23-.232.024.024.047.024.092.023.139.023-.023.023-.093.046-.161.046-.161.115.439 0 .785-.346.37-.37.37-.855 0-1.548-2.08-1.548l-.993.069.023.531-.046 1.664q0 .555.346.555zM40.436 45.73l-.092 2.126-.14.162-6.215.023q-.023-.023-.208-.023h-.208l-1.294.093q-1.502 0-1.502-.255.023-.023.023-.069 0-.07.023-.092-.046-.324-.046-.416l.046-.832v-.185q0-.162-.023-.185.046-.97.046-1.41l-.184-5.314.092-4.46q0-1.594.116-2.634.23-.115.554-.115 2.473-.047 3.027-.07.093.07.347.07h.693l1.918.023q1.248 0 2.403-.07l.07-.046q-.185-.115-.44-.115l-.485.023h-.115v-.047q.808 0 1.525-.092.092.023.092.116 0 .069-.139.207.07.278.07.879l-.023 1.294v.277q0 .208.023.254-.046.324-.046.508v.116q-.44.07-2.889.185-.162 0-.531-.046l-2.658.069-.046.092.023.44-.07 1.524q0 .208.047.624l.093.093 2.796.023q.069.139.069.67t-.023 1.41v1.294q-.278-.07-1.502-.07-1.225 0-1.225.07l-.139.23v1.595q0 .693.093.994l-.07.115.093.046 3.951.07q.97 0 1.941-.07l.093.116zm-6.586 1.895l.231.047q.601 0 5.2-.093l.67-.07q.092-.3.092-.739t-.046-.924q-.023-.485-.023-.693-.07.07-.162.07l-.185-.024q-.115 0-.185.093-2.588-.047-3.72-.047H34.29q-.23 0-.37-.161l.024-.023-.139-.116q-.023-.046-.023-.347v-1.317l-.115-.9q0-.602.023-.671.046-.07.046-.116t.6-.115q.601-.07 1.34-.116.763-.046.879-.046.115-.023.115.046h.14q-.024-.023-.024-.184l.046-1.11q0-1.132-.277-1.132-.393.07-.786.07l-1.41-.093q-.23 0-.277.139-.23 0-.277-.3l-.023-.255q0-.139-.092-.208l.046-.762-.046-1.734q0-.23.092-.415h.139q.393 0 .785-.093h.324q.462 0 4.321-.115.508-.047.647-.093l-.046-2.519-.046-.069q-.208.07-.463.07l-1.247-.07-.832.023-1.756-.046q-1.988 0-4.437.416l-.07.162.047 1.571q-.023.023 0 .647.046.6.046.901v1.294q0 .07.07.231.092.139.092.347 0 .185-.023.346l.092.948q0 .485-.208 1.317v1.086q.023.324.023.647.023.208.047.208.046-.023.069 0 .023-.023.023-.07.023-.046.07-.046h.022l-.023-.161q0-.07.07-.116.069.208.069.509 0 .3-.07.3-.069 0-.069-.023t-.046-.023l-.023.046q.023 0 .023.07 0 .046-.07.161-.046.092-.046.116l.07-.024q.046.093.046.3v.255q-.046.231-.208.74v.092q-.023 0-.023.023t.231.44q.231.392.231.577 0 .161-.07.161-.045 0-.069-.023.024.023.024.208v.208q-.093.832-.093 1.317.162.07.324.07l.74-.07zM47.425 48.041l-.624.07q-.115 0-.138-.023-.047.023-.278.023h-.254q-1.27 0-2.842-.393-.555-.185-1.178-1.132-.278-.44-.44-.624-.6-.994-.716-2.727l.139-.116q.901.093 1.802.093.924 0 1.502-.093.231.07.324.463.115.392.23.485.486.693 1.225.693.74 0 1.179-.439.439-.462.439-1.202 0-.207-.139-.415-.37-.647-1.016-.948-.624-.3-1.572-.462-.947-.162-1.34-.3-1.155-.44-1.78-1.502-.6-1.086-.6-2.38 0-2.057 1.063-3.443.809-.763 2.033-1.225 1.248-.462 2.496-.462 1.941 0 3.073 1.063 1.664 1.201 1.664 3.396 0 .162-.046.67-.717.185-2.08.185-1.34 0-1.617-.208.092-.092.092-.254 0-.577-.462-.924-.462-.37-1.063-.37-.578 0-.716.139l.092.046q-.855.116-.855 1.11 0 .739.532 1.04.554.3 1.386.415.855.092 1.132.254 1.664.994 2.126 1.433 1.248 1.178 1.248 3.35 0 1.433-.6 2.565-.579 1.11-1.71 1.641.068-.092.276-.254.232-.162.324-.3h-.254q-.37.23-.532.3l-.485.208q-.485.23-.947.554zm2.796-11.207l.462.093h.023q.024-.023.07-.023l.23-.116v-.462q0-1.733-1.57-2.727-1.017-.624-1.849-.855-.809-.23-.832-.23h-.254q-.74 0-1.502.207-.74.208-1.086.555-.208 0-.44.208-.207.185-.253.185-.023 0-.023-.047 0-.046.092-.092.092-.07.231-.139.139-.092.208-.208-.323.07-.716.532-.393.462-.393.624 0-.185.416-.416l.046.138q-.439.416-.647.878-.185.44-.323.855-.116.393-.232.694-.092.3-.092.947 0 1.456 1.386 2.611 0 .254.324.393.37.116.994.254.624.139 1.04.254.438.116.947.324 1.063.393 1.594 1.294.139.277.139.578 0 .716-.624 1.294-.6.577-1.41.577-.508 0-.739-.115-.208-.139-.323-.208-.093-.07-.232-.231-.115-.162-.161-.231-.278-.416-.324-.509-.254-.092-.716-.092l-1.756.138h-.208q-.162 0-.185-.023.23 1.618.416 1.618.277.809 1.201 1.479.925.647 1.71.647.162 0 .255-.093.069.07.23.07h.116l.948.161q2.195 0 4.066-2.472.463-1.04.463-1.941t-.208-1.456q-.185-.578-.416-.901-.231-.347-.786-.693-.531-.347-.832-.462-.3-.139-1.04-.463l-2.241-.947q-.67-.323-.67-1.479 0-.762.346-1.294.37-.554 1.202-.554t1.386.577q.578.555.786 1.34.324.07.716.07zM61.992 35.263q-.208.116-.208.254 0 .116-.024.116l-.208-.023q-.046.046-.277.023-.23-.023-.37-.023l-.762.046q-.254 0-.277-.023l-.878.046q-.093.208-.093.832l.023.624-.046 2.518q0 .832.07 1.063.092.231.092 1.248L58.94 44.9q0 .832.139 3.004l-.254.138-.046-.046q-1.572.093-3.443.093l-.024-.047.093-.3v-.046q.023-.208.023-.393v-.208q-.046-.347-.092-.44l-.047.14v.346q0 .231-.092.324v-.093q.115-1.317.115-2.38l-.023-1.733q.047-.277.07-.3-.023-.393-.023-.555l.023-.462v-.07q.115-.3.115-.554 0-.254-.046-.3l-.046-.231.046-.878q0-.231-.046-.555l.092.046q.023-.023.023-.162 0-.138-.069-.207-.023-.208-.023-.44v-.115h-.046l.023-.162-.093-2.01-.023-.347.139-.323q-.139 0-.485-.093-.208.093-.624.093l-.763-.023-.716.023q-.347 0-.485-.046-.047-.255-.047-1.063V33.9q0-.486-.023-.694l-.046-.554q0-.3.116-.647l-.093-.162h.023l.578.046q.578.047.924.047.37 0 .74-.047l.878.023.693.024q1.248 0 2.01-.093l.093.07q1.802.115 3.373.115.3 0 .509.162l-.023.832-.023-.023-.047.069zm-2.45.023l2.126-.115.07-2.38q0-.532-.232-.532h-.346q-.185 0-.347.092-.07 0-.092-.023.023-.023.023-.138v-.023q-.185.184-.3.184-.093 0-.162-.092-.024.092-.116.092h-.116q-.023-.023-.069-.023l.093-.046h-.162v.07l-.046.023h-.047l.024-.024q-.162-.069-1.803-.069-1.64 0-2.958.093-.092-.024-.092-.07l-1.225-.069-.069.092q-.231-.046-.254-.046l-.74.07q-.208 0-.23-.024v.07l-.024.439q0 .323.093.716l.046.277v.601q0 .509.046.809.462.139 1.202.139l1.686-.047q.3.093.3.116-.022.07-.068.531.069 1.664.069 3.397l-.116 8.065q0 .161 2.773.346l.116-1.201v-2.612q0-.37.023-.531l-.116-6.978-.046-.231.023-.347q0-.046-.023-.162.07-.092.139-.23.092-.255.161-.255v-.023l.601.07z"
              fill="#ff5454"/>
        <path style="line-height:1;font-variant-ligatures:normal;font-variant-caps:normal;font-variant-numeric:normal;font-feature-settings:normal;text-align:start"
              d="M67.204 46.193l-.092-.578v-.07q.046-.069.092-.069l.116.024q.046 0 .069-.024v-.023q.115 0 .115-.046 1.04-.531 1.04-2.403v-.6q0-1.387.601-1.919l.023-.046q.046-.046.046-.07h.047l.092-.069.023-.023q-.162-.092-.208-.161h-.046q0-.024-.023-.047h-.046l-.07-.092h-.046l-.023-.093q-.139-.138-.185-.392l-.046-.093q-.023-.023-.023-.23h-.023q-.047-.324-.047-.394l-.046-.878v-.185l.023-.785v-.462q0-1.34-.693-1.34l-.046-.047-.3-.023v-.023l-.208-.07q-.14-.046-.14-.207h.047q.023-.023.023-.185v-.462q-.046-.139-.046-.231v-1.34q0-.093-.046-.324.162-.162.6-.162h.763q3.096 0 3.096 2.727l-.046 1.386q0 .97.462 1.733.463.763 1.387.763l.439-.023q.323 0 .393.138.092.139.092.601 0 .462-.092.624h-.023l-.047.416q.07.37.047.763 0 .37-.208.485-.185.115-.509.138-.3.024-.416.093-1.617.647-1.617 3.697l.023.485q0 .948-.578 1.225v.046h-.046q-.046.185-.185.208v.046q-.185.116-.185.139l-.23.092q-.024.024-.024.047-.138.023-.138.069h-.047l-.185.092v.024l-.392.092-.278.046q-.462.116-.947.116h-.162l-.462-.023q-.07 0-.092.023l-.116-.023q-.07 0-.092-.024v.024q-.116 0-.139.023v-.047q-.023-.023-.046-.023 0-.069.023-.092l-.023-.07-.023-.693q0-.3.023-.323l-.023-.347.046-.416q.023-.023.023-.115zm1.548-8.458l-.023.185v.37l.093.647q0 .139.023.162h.023l.046.138q0 .208.092.3l.185.232h.046q0 .115.647.323l.07.093v.115q-.023 0-.046.024v.046q-.024 0-.047.023l-.069.023-.092.115-.116.07q-.254.254-.393.254v.07q-.023.069-.115.138v.046q0 .023-.047.093-.046.046-.069.046l-.138.74q-.047.23-.047.323l-.023 1.294q0 .254.023.37l-.046.3-.092.277q-.023.023-.023.139h-.024q-.023.023-.023.092h-.023q-.023.07-.023.162 0 .07-.023.07l-.092.184q-.047.046-.139.116-.07.069-.092.115l-.255.162-.531.116v.67q.07.208.07.23l-.047.347.023.555q0 .208-.023.231l.023.3q.116 0 .277-.115l.023.023-.046.139.185.023v.023q.416 0 1.502-.162v-.023l.139-.023v-.023l.115-.047q.093 0 .37-.161l-.023.023q-.023 0 .092-.116.324-.416.694-.554l.023-.023.023.046q.023-.023 0-.046v-.07q.254-.254.37-.531 0-.07-.07-.093v-.069l.07.023v-.07l-.047-.022q.046-.046.116-.278h-.046q.046-.254.138-.346v-.809l-.046-.416.023-.115.023-1.156q0-.185.07-.185l.207-.439q0-.092.024-.115h.023q0-.139.069-.139v-.046l.162-.162h.046q.162-.162.208-.162v-.046h.046l.07-.092.646-.231.3-.046q.07-.024.394-.024.323 0 .323-.3l-.023-.323.023-.463q0-.023-.046-.346l-.023-.67q0-.162-.07-.231l-.092.023-.3-.047q-.023-.023-.185-.023l-.277-.023-.231-.046q-.509-.208-.74-.439h-.046q-.046-.046-.046-.07h-.047l-.161-.161v-.046q-.023-.023-.047-.023v-.047q-.069 0-.115-.208l-.046-.069-.185-.554.046-.278h-.023l.023-.092-.023-.485v-.093h.023q.023-.023.023-.138v-.208l-.07-.763q0-.046.024-.046V35.1h-.07v-.947q0-.162-.022-.208l-.162-.532-.093-.069V33.3l-.277-.277h-.046l-.208-.208h-.046l-.231-.093q-.162 0-.185-.023l-.162-.046q-.578-.185-.647-.116v-.023l-.023.023-.254-.023h-.416l-.116-.023-.023.023h-.485q-.07 0-.092.023l-.232-.023q-.023 0-.023.046l-.023.185v.462q-.023.024-.023.255v.254q.023.023.023.046h-.023l.023.208-.023.046q.046.046.046.254l-.023.278.046.161q.024.024.093.024v.023q.323.046.347.046v.023q.069 0 .277.139h.046l.162.115q.092 0 .254.509l.07 1.016-.024 1.086zm1.225 9.96v-.023q0-.023.023-.023v.046z"
              fill="#fff"/>
    </g>
</svg>
