<?xml version="1.0" encoding="UTF-8" standalone="no"?>
<svg
   xmlns:dc="http://purl.org/dc/elements/1.1/"
   xmlns:cc="http://creativecommons.org/ns#"
   xmlns:rdf="http://www.w3.org/1999/02/22-rdf-syntax-ns#"
   xmlns:svg="http://www.w3.org/2000/svg"
   xmlns="http://www.w3.org/2000/svg"
   xmlns:sodipodi="http://sodipodi.sourceforge.net/DTD/sodipodi-0.dtd"
   xmlns:inkscape="http://www.inkscape.org/namespaces/inkscape"
   width="80"
   height="80"
   viewBox="0 0 80 80"
   version="1.1"
   id="svg94"
   sodipodi:docname="pluginIcon_dark.svg"
   inkscape:version="0.92.5 (0.92.5+68)">
  <metadata
     id="metadata98">
    <rdf:RDF>
      <cc:Work
         rdf:about="">
        <dc:format>image/svg+xml</dc:format>
        <dc:type
           rdf:resource="http://purl.org/dc/dcmitype/StillImage" />
        <dc:title />
      </cc:Work>
    </rdf:RDF>
  </metadata>
  <sodipodi:namedview
     pagecolor="#ffffff"
     bordercolor="#666666"
     borderopacity="1"
     objecttolerance="10"
     gridtolerance="10"
     guidetolerance="10"
     inkscape:pageopacity="0"
     inkscape:pageshadow="2"
     inkscape:window-width="1920"
     inkscape:window-height="1056"
     id="namedview96"
     showgrid="false"
     inkscape:zoom="8.34386"
     inkscape:cx="25.546803"
     inkscape:cy="44.503877"
     inkscape:window-x="0"
     inkscape:window-y="24"
     inkscape:window-maximized="1"
     inkscape:current-layer="g92" />
  <defs
     id="defs72">
    <linearGradient
       id="pluginsdk_80-a"
       x1="-0.01035717"
       x2="33.427933"
       y1="40.749962"
       y2="40.749962"
       gradientTransform="matrix(0.89792871,0,0,1.1136742,8,8)"
       gradientUnits="userSpaceOnUse">
      <stop
         offset="25.81%"
         stop-color="#F97A12"
         id="stop2" />
      <stop
         offset="45.91%"
         stop-color="#B07B58"
         id="stop4" />
      <stop
         offset="72.41%"
         stop-color="#577BAE"
         id="stop6" />
      <stop
         offset="91.05%"
         stop-color="#1E7CE5"
         id="stop8" />
      <stop
         offset="100%"
         stop-color="#087CFA"
         id="stop10" />
    </linearGradient>
    <linearGradient
       id="pluginsdk_80-b"
       x1="40.00824"
       x2="68.705269"
       y1="18.115879"
       y2="40.733696"
       gradientTransform="matrix(0.8201327,0,0,1.2193149,8,8)"
       gradientUnits="userSpaceOnUse">
      <stop
         offset="0%"
         stop-color="#F97A12"
         id="stop13" />
      <stop
         offset="7.18%"
         stop-color="#CB7A3E"
         id="stop15" />
      <stop
         offset="15.41%"
         stop-color="#9E7B6A"
         id="stop17" />
      <stop
         offset="24.2%"
         stop-color="#757B91"
         id="stop19" />
      <stop
         offset="33.44%"
         stop-color="#537BB1"
         id="stop21" />
      <stop
         offset="43.24%"
         stop-color="#387CCC"
         id="stop23" />
      <stop
         offset="53.81%"
         stop-color="#237CE0"
         id="stop25" />
      <stop
         offset="65.52%"
         stop-color="#147CEF"
         id="stop27" />
      <stop
         offset="79.25%"
         stop-color="#0B7CF7"
         id="stop29" />
      <stop
         offset="100%"
         stop-color="#087CFA"
         id="stop31" />
    </linearGradient>
    <linearGradient
       id="pluginsdk_80-c"
       x1="64.109039"
       x2="55.996876"
       y1="35.495808"
       y2="-2.3931761"
       gradientTransform="matrix(0.82572282,0,0,1.2110601,8,8)"
       gradientUnits="userSpaceOnUse">
      <stop
         offset="0%"
         stop-color="#FE315D"
         id="stop34" />
      <stop
         offset="7.84%"
         stop-color="#CB417E"
         id="stop36" />
      <stop
         offset="16.01%"
         stop-color="#9E4E9B"
         id="stop38" />
      <stop
         offset="24.74%"
         stop-color="#755BB4"
         id="stop40" />
      <stop
         offset="33.92%"
         stop-color="#5365CA"
         id="stop42" />
      <stop
         offset="43.65%"
         stop-color="#386DDB"
         id="stop44" />
      <stop
         offset="54.14%"
         stop-color="#2374E9"
         id="stop46" />
      <stop
         offset="65.76%"
         stop-color="#1478F3"
         id="stop48" />
      <stop
         offset="79.4%"
         stop-color="#0B7BF8"
         id="stop50" />
      <stop
         offset="100%"
         stop-color="#087CFA"
         id="stop52" />
    </linearGradient>
    <linearGradient
       id="pluginsdk_80-d"
       x1="15.433212"
       x2="57.18166"
       y1="14.694787"
       y2="80.800919"
       gradientTransform="matrix(0.95197164,0,0,1.0504515,8,8)"
       gradientUnits="userSpaceOnUse">
      <stop
         offset="0%"
         stop-color="#FE315D"
         id="stop55" />
      <stop
         offset="4.023%"
         stop-color="#F63462"
         id="stop57" />
      <stop
         offset="10.37%"
         stop-color="#DF3A71"
         id="stop59" />
      <stop
         offset="16.67%"
         stop-color="#C24383"
         id="stop61" />
      <stop
         offset="29.12%"
         stop-color="#AD4A91"
         id="stop63" />
      <stop
         offset="54.98%"
         stop-color="#755BB4"
         id="stop65" />
      <stop
         offset="91.75%"
         stop-color="#1D76ED"
         id="stop67" />
      <stop
         offset="100%"
         stop-color="#087CFA"
         id="stop69" />
    </linearGradient>
  </defs>
  <g
     id="g92"
     style="fill:none;fill-rule:evenodd">
    <path
       inkscape:connector-curvature="0"
       id="path925"
       style="font-style:normal;font-variant:normal;font-weight:normal;font-stretch:normal;font-size:21.33333397px;line-height:1;font-family:'Londrina Sketch';-inkscape-font-specification:'Londrina Sketch, Normal';font-variant-ligatures:normal;font-variant-caps:normal;font-variant-numeric:normal;font-feature-settings:normal;text-align:start;letter-spacing:0px;word-spacing:0px;writing-mode:lr-tb;text-anchor:start;fill:#ffffff;fill-opacity:1;stroke:none;stroke-width:1.08315611px;stroke-linecap:butt;stroke-linejoin:miter;stroke-opacity:1"
       d="m 12.680476,45.499548 0.115537,-0.0231 q 0.04622,0 0.09243,0.06932 v 0.06932 l -0.09243,0.577682 q 0,0.09243 0.0231,0.115537 l 0.04622,0.415932 -0.0231,0.34661 q 0.0231,0.0231 0.0231,0.323503 l -0.0231,0.69322 -0.0231,0.06932 q 0.0231,0.0231 0.0231,0.09243 -0.0231,0 -0.04622,0.0231 v 0.04622 q -0.0231,-0.0231 -0.138644,-0.0231 v -0.0231 q -0.0231,0.0231 -0.09242,0.0231 l -0.115536,0.0231 q -0.0231,-0.0231 -0.09243,-0.0231 l -0.462146,0.0231 h -0.161752 q -0.485254,0 -0.9474,-0.115537 l -0.277288,-0.04622 -0.392825,-0.09243 v -0.0231 l -0.1848586,-0.09243 h -0.046223 q 0,-0.04622 -0.138644,-0.06932 0,-0.0231 -0.023104,-0.04622 l -0.2310729,-0.09243 q 0,-0.0231 -0.184859,-0.138644 v -0.04622 q -0.138644,-0.0231 -0.1848579,-0.207966 H 9.075734 V 47.30192 Q 8.49805,47.024632 8.49805,46.077232 l 0.023104,-0.485254 q 0,-3.050168 -1.6175133,-3.697173 -0.1155366,-0.06932 -0.4390393,-0.09243 -0.6701126,-0.04622 -0.7163272,-0.531469 0,-0.485254 0.069322,-0.854971 l -0.046215,-0.415932 h -0.023107 q -0.092429,-0.161752 -0.092429,-0.623898 0,-0.462147 0.092429,-0.60079 0.069322,-0.138644 0.3928247,-0.138644 l 0.4390392,0.0231 q 0.924293,0 1.38644,-0.762542 0.462147,-0.762542 0.462147,-1.733049 l -0.046218,-1.38644 q 0,-2.726665 3.0963829,-2.726665 h 0.762542 q 0.439039,0 0.60079,0.161751 -0.04622,0.231074 -0.04622,0.323503 v 1.340225 q -0.04622,0.231074 -0.04622,0.231074 v 0.462146 q 0,0.161752 0.0231,0.184859 h 0.04622 q 0,0.161751 -0.138644,0.207966 l -0.207966,0.06932 v 0.0231 l -0.300395,0.0231 -0.04622,0.04622 q -0.69322,0 -0.69322,1.340226 v 0.670112 l 0.0231,0.762542 -0.04622,0.878079 q 0,0.06932 -0.04622,0.392825 h -0.02308 q 0,0.207966 -0.0231,0.231073 l -0.04622,0.09243 q -0.04622,0.254181 -0.184859,0.392825 l -0.0231,0.09242 h -0.04622 l -0.06932,0.09243 h -0.04622 q -0.0231,0.0231 -0.0231,0.04622 h -0.04622 l -0.207966,0.161752 0.115537,0.09243 h 0.04622 q 0,0.0231 0.04622,0.06932 l 0.0231,0.04622 q 0.60079,0.531468 0.60079,1.917908 v 0.600791 q 0,1.987231 1.155366,2.449378 v 0.0231 q 0.0231,0.0231 0.06932,0.0231 z m -2.68045,2.195197 q 0.06932,0.04622 0.485254,0.207966 v 0.0231 l 0.138644,0.0231 v 0.0231 q 1.086045,0.161751 1.501976,0.161751 v -0.0231 q 0.0231,0 0.09243,0 0.06932,-0.0231 0.09243,-0.0231 l -0.04622,-0.138644 0.0231,-0.0231 q 0.161752,0.115537 0.277288,0.115537 l 0.0231,-0.300395 q -0.0231,-0.0231 -0.0231,-0.231074 l 0.0231,-0.554576 -0.04622,-0.34661 q 0,-0.0231 0.06932,-0.231073 V 45.707514 L 12.079685,45.591978 11.825506,45.430226 Q 11.709969,45.31469 11.594432,45.199153 l -0.09243,-0.184859 q -0.0231,0 -0.0231,-0.04622 l -0.0231,-0.184859 h -0.0231 q 0,-0.06932 -0.0231,-0.09243 h -0.0231 q 0,-0.115537 -0.0231,-0.138644 l -0.09243,-0.277288 -0.04622,-0.300396 q 0.0231,-0.115535 0.0231,-0.369716 l -0.0231,-1.294011 q 0,-0.09243 -0.04622,-0.323503 l -0.138644,-0.739434 q -0.0231,0 -0.06932,-0.04622 -0.04622,-0.06932 -0.04622,-0.09243 v -0.04622 q -0.04622,0 -0.115537,-0.138644 v -0.06932 q -0.138644,0 -0.392825,-0.254181 l -0.115536,-0.06932 -0.09243,-0.115536 -0.06932,-0.0231 q -0.0231,-0.0231 -0.04622,-0.0231 v -0.04622 q -0.0231,-0.0231 -0.04622,-0.0231 v -0.115537 l 0.06932,-0.09242 q 0.647005,-0.207966 0.647005,-0.323503 h 0.04622 l 0.184842,-0.23108 q 0.09243,-0.09243 0.09243,-0.300395 l 0.04622,-0.138644 h 0.0231 q 0.0231,-0.0231 0.0231,-0.161752 l 0.09243,-0.647005 v -0.369717 l -0.0231,-0.184859 0.0231,-0.04622 -0.0231,-1.086044 0.06932,-1.016723 0.04622,-0.138644 q 0.161751,-0.369716 0.207966,-0.369716 l 0.161751,-0.115537 h 0.04622 q 0.207966,-0.138644 0.277287,-0.138644 v -0.0231 q 0.0231,0 0.34661,-0.04622 v -0.0231 q 0.06932,0 0.09243,-0.0231 l 0.04622,-0.161751 -0.0231,-0.277288 q 0,-0.207966 0.04622,-0.254181 l -0.0231,-0.04622 0.0231,-0.207966 h -0.0231 q 0,-0.0231 0.0231,-0.04622 v -0.254181 q 0,-0.231073 -0.0231,-0.25418 v -0.462147 q -0.0231,-0.04622 -0.0231,-0.138644 0,-0.09243 -0.0231,-0.09243 l -0.231073,0.0231 q -0.0231,-0.0231 -0.09243,-0.0231 h -0.485254 l -0.0231,-0.0231 -0.115536,0.0231 h -0.415932 l -0.254181,0.0231 -0.0231,-0.0231 v 0.0231 q -0.0231,-0.0231 -0.207966,0 -0.06932,0 -0.34661,0.09243 -0.277288,0.09242 -0.43904,0.09242 l -0.2310729,0.09243 h -0.046218 l -0.207966,0.207966 h -0.04624 l -0.277288,0.277288 v 0.04622 l -0.092426,0.06932 -0.1617509,0.531468 q -0.023104,0.06932 -0.023104,0.207966 v 0.947401 h -0.069322 v 0.115537 q 0.023104,0 0.023104,0.04622 l -0.069322,0.762542 v 0.207966 q 0,0.115537 0.023104,0.138644 h 0.023104 v 0.09243 l -0.023104,0.485254 0.023104,0.09242 H 8.682909 L 8.729127,37.319544 8.544268,37.87412 8.49805,37.94344 q -0.046218,0.207966 -0.115537,0.207966 v 0.04622 q -0.023104,0 -0.046218,0.0231 v 0.04622 l -0.1617509,0.16175 h -0.046218 q 0,0.0231 -0.046218,0.06932 H 8.035889 q -0.2310741,0.231073 -0.739435,0.439039 l -0.2310729,0.04622 -0.2772882,0.0231 q -0.1617512,0 -0.1848587,0.0231 l -0.3003952,0.04622 -0.092429,-0.0231 q -0.069322,0.06932 -0.069322,0.231073 L 6.117981,39.953781 Q 6.071766,40.277283 6.071766,40.30039 l 0.023107,0.462147 -0.023107,0.323502 q 0,0.300396 0.3235026,0.300396 0.3235027,0 0.3928247,0.0231 l 0.3003947,0.04622 0.6470049,0.231073 0.069322,0.09243 h 0.046218 v 0.04622 q 0.046218,0 0.207966,0.161751 h 0.046218 l 0.1617509,0.161752 v 0.04622 q 0.069322,0 0.069322,0.138643 h 0.023104 q 0.023104,0.0231 0.023104,0.115538 l 0.207966,0.439038 q 0.069322,0 0.069322,0.184859 l 0.023104,1.155367 0.023104,0.115537 -0.046218,0.415932 v 0.808756 q 0.092426,0.09243 0.138644,0.34661 h -0.046218 q 0.069322,0.231074 0.115537,0.277288 l -0.046218,0.0231 v 0.06932 l 0.069322,-0.0231 v 0.06932 q -0.069322,0.0231 -0.069322,0.09243 0.115537,0.277288 0.369718,0.531468 0,0.0231 -0.023104,0.06932 0,0.0231 0.023104,0.04622 l 0.023104,-0.04622 0.023104,0.0231 q 0.2772879,0.138644 0.5314689,0.392824 l 0.2541813,0.277288 q -0.023104,0 -0.023104,-0.0231 z m 0,0 v -0.04622 l 0.0231,0.04622 z" />
    <path
       inkscape:connector-curvature="0"
       id="path927"
       style="font-style:normal;font-variant:normal;font-weight:normal;font-stretch:normal;font-size:21.33333397px;line-height:1;font-family:'Londrina Sketch';-inkscape-font-specification:'Londrina Sketch, Normal';font-variant-ligatures:normal;font-variant-caps:normal;font-variant-numeric:normal;font-feature-settings:normal;text-align:start;letter-spacing:0px;word-spacing:0px;writing-mode:lr-tb;text-anchor:start;fill:#ff5454;fill-opacity:1;stroke:none;stroke-width:1.08315611px;stroke-linecap:butt;stroke-linejoin:miter;stroke-opacity:1"
       d="m 29.377328,48.041355 -2.541806,0.09243 h -0.392825 q -0.947401,0 -0.947401,-0.392824 0,-0.09243 0.04622,-0.09243 l 0.09243,0.04622 0.04622,-0.04622 q -0.16175,-0.277288 -0.462146,-0.808756 l -0.485254,-0.901186 q -0.439043,-0.785651 -0.808759,-1.779265 l -1.409548,-2.010338 v 1.109152 q 0,2.980845 0.161752,4.297963 l -0.04622,0.0231 0.231073,0.207966 q -0.115536,0 -0.161751,0.138644 -0.04622,0.138644 -0.09242,0.161752 -0.04622,-0.04622 -0.09243,-0.04622 l -0.115536,0.04622 q -0.0231,0 -0.09243,-0.06932 l -1.779263,0.09242 h -0.277289 l -0.623898,-0.04622 h -0.231082 l -0.300395,-0.0462 q -0.09243,0 -0.09243,0.04622 v 0.0231 q -0.04622,-0.04622 -0.04622,-0.06932 l -0.04622,0.09243 -0.09243,-0.115537 -0.09243,0.06932 -0.04622,-0.184858 q 0.115536,-0.647006 0.115536,-0.808757 0,-0.161751 -0.04622,-0.439039 -0.04622,-0.277288 -0.04622,-0.462147 l 0.0231,0.0231 q 0.0231,0 0.0231,0.04622 0.04622,-0.04622 0.04622,-0.138644 v -0.762542 l 0.04622,-2.287626 -0.184859,-8.064458 q 0,-1.709942 0.0231,-2.980846 l 0.277288,-0.323502 0.115536,0.207966 q 0.0231,0.0231 0.207966,0.0231 h 0.184859 q 0.300395,0 1.709943,-0.207966 l -0.04622,0.04622 q 0.415932,0.06932 0.878079,0.06932 l 1.663727,-0.04622 h 0.323503 q 0.277288,0 0.323502,0.0231 l 0.06932,-0.06932 q -0.06932,0 -0.25418,-0.04622 1.686835,0.138644 3.604744,1.270903 l -0.0231,0.04622 q 0.762542,0.531468 1.340226,2.218304 0.0231,-0.0231 0.0231,-0.115537 0.06932,0.531469 0.06932,1.247796 0,3.073274 -1.802372,4.182426 -0.34661,0.161752 -1.03983,0.34661 -0.670113,0.184859 -0.831864,0.231074 0.323503,0.577683 0.854971,1.363332 l 0.924294,1.317119 q 1.548191,2.218303 1.709942,2.957737 0.06932,0.323503 0.554576,1.155367 v 0.04622 q 0.04622,0 0.04622,0.04622 0.0231,0.0231 0.04622,0.0231 l -0.207966,0.06932 h -0.04621 z m -8.988752,-0.184859 0.831865,0.06932 q 0.207966,0 0.462146,-0.06932 h -0.04622 q 0.207966,-0.138644 0.531468,-0.207966 l 0.115537,-3.604743 q 0,-0.300395 -0.0231,-0.462146 l -0.06932,0.115536 q -0.0231,-0.0231 -0.0231,-0.207966 v -0.231073 q 0,-1.82548 0.138644,-2.264519 0.06932,0.138644 0.06932,0.254181 v 0.04622 q 0.138644,0.04622 0.300396,0.323503 0.161751,0.254181 0.207966,0.300395 l -0.04622,0.04622 q 1.409546,2.148982 2.010337,3.4661 0.231073,0.277288 0.485254,0.993616 0.277288,0.716327 0.647005,1.109152 0.392825,0.392824 1.03983,0.392824 0.647006,0 1.525084,-0.138644 l -0.04622,-0.09243 h 0.09243 l 0.415932,0.09243 q 0.09243,0 0.138644,-0.04622 -0.04622,-0.06932 -0.138644,-0.06932 -0.06932,0 -0.06932,-0.0231 0,-0.0231 0.06932,-0.09243 l -0.415932,-0.854971 v -0.06932 q 0,-0.184859 -0.415932,-0.808757 -0.392825,-0.623898 -0.485254,-0.878079 -0.254181,-0.34661 -0.785648,-1.270903 -0.508362,-0.924293 -0.901186,-1.386439 0.161751,0.323502 0.25418,0.415932 -0.115536,-0.161752 -0.415932,-0.485254 -0.277288,-0.323503 -0.439039,-0.508362 -0.415932,-0.462146 -0.554576,-0.993615 0.0231,0.0231 0.06932,0.0231 0.554576,0 1.132259,-0.369717 0.600791,-0.369717 1.016722,-0.947401 h 0.09243 q 0.808757,-1.086044 1.155367,-1.802372 0.369717,-0.716327 0.369717,-1.594406 0,0 -0.0231,-0.277288 h -0.09243 v -0.161751 q 0,-1.270903 -2.148982,-2.403162 l 0.0231,-0.0231 q 0.115537,0.04622 0.346609,0.115537 0.508361,0.207966 0.670113,0.369717 -1.594405,-1.224689 -2.195196,-1.38644 -0.970508,-0.207966 -3.050168,-0.207966 -2.07966,0 -2.888416,0.115537 v 0.06932 l 0.04622,0.207966 0.115536,-0.04622 0.06932,0.09242 0.554576,-0.06932 q 0.0231,0 0.06932,0.0231 0.04622,0 0.06932,0 -0.06932,0.04622 -0.231073,0.06932 -0.34661,0.04622 -0.485254,0.300395 v 0.138644 q 0,0.323503 -0.138644,0.739435 -0.161751,3.512313 -0.161751,4.505929 0,0.993615 0.115536,2.403162 0.115537,1.409548 0.115537,1.501977 v 0.508361 l -0.04622,2.172089 q 0,0.878079 0.115537,1.478869 0.06932,0.04622 0.06932,0.09243 0,0.04622 -0.138644,0.901186 h -0.0231 q -0.04622,-0.0231 -0.09243,-0.115537 l 0.06932,0.531469 q 0.09243,0.161751 0.415932,0.161751 h 0.115537 q 0.207966,0 0.231073,0.0231 l -0.0231,0.0231 z m 1.871695,-12.824568 1.062937,0.0231 q 0.554575,0 0.808756,-0.06932 -0.115537,-0.115536 -0.115537,-0.138644 0.06932,0 0.369717,0.254181 0.323503,0.231072 0.647006,0.623897 0.323502,0.369717 0.300395,0.554576 0,0.184859 -0.0231,0.300395 0.0231,0.0231 0.0231,0.254181 0,0.647005 -0.831864,1.224689 -0.06932,0.0231 -0.254181,0.0231 -0.184858,0 -0.25418,0.138644 Q 23.577389,38.10519 23.230779,38.10519 L 22.3527,38.1283 h -0.277288 q -0.138644,0 -0.138644,-0.115537 v -0.06932 q 0,-0.06932 -0.115537,-0.06932 0.138644,-0.231073 0.138644,-0.323503 0,-0.115536 -0.0231,-0.138644 0.0231,-0.0231 0.0231,-0.231073 v -0.947401 q 0,-0.670112 -0.115536,-0.762542 l -0.04622,-0.415932 z m 0.184858,2.980845 1.062938,-0.06932 q 0.34661,0 0.369716,0.0231 0,-0.231073 0.231073,-0.231073 0.0231,0.0231 0.04622,0.0231 0.09242,0.0231 0.138644,0.0231 -0.0231,0.0231 -0.09243,0.04622 -0.161752,0.04622 -0.161752,0.115537 0.43904,0 0.78565,-0.34661 0.369717,-0.369717 0.369717,-0.854971 0,-1.548192 -2.07966,-1.548192 l -0.993615,0.06932 0.0231,0.531469 -0.04622,1.663728 q 0,0.554576 0.34661,0.554576 z" />
    <path
       inkscape:connector-curvature="0"
       id="path929"
       style="font-style:normal;font-variant:normal;font-weight:normal;font-stretch:normal;font-size:21.33333397px;line-height:1;font-family:'Londrina Sketch';-inkscape-font-specification:'Londrina Sketch, Normal';font-variant-ligatures:normal;font-variant-caps:normal;font-variant-numeric:normal;font-feature-settings:normal;text-align:start;letter-spacing:0px;word-spacing:0px;writing-mode:lr-tb;text-anchor:start;fill:#ff5454;fill-opacity:1;stroke:none;stroke-width:1.08315611px;stroke-linecap:butt;stroke-linejoin:miter;stroke-opacity:1"
       d="m 40.435991,45.730622 -0.09243,2.125874 -0.138644,0.161752 -6.215872,0.0231 q -0.0231,-0.0231 -0.207966,-0.0231 h -0.207966 l -1.294011,0.09243 q -1.501976,0 -1.501976,-0.254181 0.0231,-0.0231 0.0231,-0.06932 0,-0.06932 0.0231,-0.09243 -0.04622,-0.323503 -0.04622,-0.415932 l 0.04622,-0.831864 V 46.26209 q 0,-0.161751 -0.0231,-0.184858 0.04622,-0.970508 0.04622,-1.409548 l -0.184859,-5.314686 0.09243,-4.459714 q 0,-1.594406 0.115537,-2.634236 0.231073,-0.115537 0.554576,-0.115537 2.472485,-0.04622 3.027061,-0.06932 0.09242,0.06932 0.34661,0.06932 h 0.693219 l 1.917909,0.0231 q 1.247796,0 2.403162,-0.06932 l 0.06932,-0.04622 q -0.184858,-0.115537 -0.439039,-0.115537 l -0.485254,0.0231 h -0.115537 v -0.04622 q 0.808757,0 1.525084,-0.09243 0.09242,0.0231 0.09242,0.115536 0,0.06932 -0.138643,0.207966 0.06932,0.277288 0.06932,0.878079 l -0.0231,1.294011 v 0.277288 q 0,0.207966 0.0231,0.25418 -0.04622,0.323503 -0.04622,0.508362 v 0.115536 q -0.439039,0.06932 -2.888416,0.184859 -0.161751,0 -0.531468,-0.04622 l -2.657344,0.06932 -0.04622,0.09243 0.0231,0.439039 -0.06932,1.525084 q 0,0.207966 0.04622,0.623898 l 0.09242,0.09243 2.795987,0.0231 q 0.06932,0.138644 0.06932,0.670112 0,0.531469 -0.0231,1.409548 0,0.854971 0,1.29401 -0.277288,-0.06932 -1.501976,-0.06932 -1.224688,0 -1.224688,0.06932 l -0.138644,0.231074 v 1.594406 q 0,0.693219 0.09242,0.993614 l -0.06932,0.115537 0.09243,0.04622 3.951354,0.06932 q 0.970508,0 1.941015,-0.06932 l 0.09243,0.115536 z m -6.585589,1.894801 0.231074,0.04622 q 0.60079,0 5.199149,-0.09242 l 0.670112,-0.06932 q 0.09243,-0.300395 0.09243,-0.739434 0,-0.43904 -0.04622,-0.924294 -0.0231,-0.485254 -0.0231,-0.69322 -0.06932,0.06932 -0.161752,0.06932 l -0.184858,-0.0231 q -0.115537,0 -0.184859,0.09243 -2.588021,-0.04622 -3.720281,-0.04622 h -1.432654 q -0.231074,0 -0.369718,-0.161752 l 0.0231,-0.0231 -0.138644,-0.115537 q -0.0231,-0.04622 -0.0231,-0.34661 v -1.317118 l -0.115536,-0.901186 q 0,-0.600791 0.0231,-0.670113 0.04622,-0.06932 0.04622,-0.115536 0,-0.04622 0.60079,-0.115537 0.600791,-0.06932 1.340226,-0.115537 0.762542,-0.04622 0.878078,-0.04622 0.115537,-0.0231 0.115537,0.04622 h 0.138644 q -0.0231,-0.0231 -0.0231,-0.184858 l 0.04622,-1.109151 q 0,-1.13226 -0.277288,-1.13226 -0.392824,0.06932 -0.785649,0.06932 l -1.409547,-0.09243 q -0.231074,0 -0.277288,0.138644 -0.231074,0 -0.277288,-0.300395 l -0.02311,-0.254191 q 0,-0.138644 -0.09243,-0.207966 l 0.04622,-0.762542 -0.04622,-1.733049 q 0,-0.231073 0.09243,-0.415932 h 0.138644 q 0.392825,0 0.78565,-0.09243 h 0.323502 q 0.462146,0 4.321071,-0.115537 0.508361,-0.04622 0.647005,-0.09243 l -0.04622,-2.518699 -0.04622,-0.06932 q -0.207966,0.06932 -0.462147,0.06932 l -1.247795,-0.06932 -0.831864,0.0231 -1.756157,-0.04622 q -1.987231,0 -4.436609,0.415932 l -0.06932,0.161751 0.04622,1.571299 q -0.0231,0.0231 0,0.647005 0.04622,0.600791 0.04622,0.901186 v 1.29401 q 0,0.06932 0.06932,0.231073 0.09243,0.138644 0.09243,0.34661 0,0.184859 -0.0231,0.34661 l 0.09243,0.947401 q 0,0.485254 -0.207966,1.317118 v 1.086045 q 0.0231,0.323502 0.0231,0.647005 0.0231,0.207966 0.04622,0.207966 0.04622,-0.0231 0.06932,0 0.0231,-0.0231 0.0231,-0.06932 0.0231,-0.04622 0.06932,-0.04622 h 0.0231 l -0.0231,-0.161751 q 0,-0.06932 0.06932,-0.115537 0.06932,0.207966 0.06932,0.508362 0,0.300395 -0.06932,0.300395 -0.06932,0 -0.06932,-0.0231 0,-0.0231 -0.04622,-0.0231 l -0.0231,0.04622 q 0.0231,0 0.0231,0.06932 0,0.04622 -0.06932,0.161751 -0.04622,0.09243 -0.04622,0.115537 l 0.06932,-0.0231 q 0.04622,0.09243 0.04622,0.300395 v 0.254181 q -0.04622,0.231073 -0.207966,0.739435 v 0.09243 q -0.0231,0 -0.0231,0.0231 0,0.0231 0.231074,0.43904 0.231073,0.392824 0.231073,0.577683 0,0.161751 -0.06932,0.161751 -0.04622,0 -0.06932,-0.0231 0.0231,0.0231 0.0231,0.207966 v 0.207966 q -0.09243,0.831864 -0.09243,1.317118 0.161751,0.06932 0.323503,0.06932 l 0.739434,-0.06932 z" />
    <path
       inkscape:connector-curvature="0"
       id="path931"
       style="font-style:normal;font-variant:normal;font-weight:normal;font-stretch:normal;font-size:21.33333397px;line-height:1;font-family:'Londrina Sketch';-inkscape-font-specification:'Londrina Sketch, Normal';font-variant-ligatures:normal;font-variant-caps:normal;font-variant-numeric:normal;font-feature-settings:normal;text-align:start;letter-spacing:0px;word-spacing:0px;writing-mode:lr-tb;text-anchor:start;fill:#ff5454;fill-opacity:1;stroke:none;stroke-width:1.08315611px;stroke-linecap:butt;stroke-linejoin:miter;stroke-opacity:1"
       d="m 47.425236,48.041355 -0.623898,0.06932 q -0.115537,0 -0.138643,-0.0231 -0.04622,0.0231 -0.277288,0.0231 h -0.254181 q -1.270903,0 -2.842202,-0.392825 Q 42.734448,47.532994 42.11055,46.585593 41.833262,46.146554 41.671511,45.961695 41.07072,44.96808 40.955183,43.23503 l 0.138644,-0.115536 q 0.901186,0.09242 1.802372,0.09242 0.924294,0 1.501977,-0.09242 0.231074,0.06932 0.323503,0.462147 0.115537,0.392824 0.231073,0.485254 0.485254,0.693219 1.224689,0.693219 0.739435,0 1.178473,-0.43904 0.439039,-0.462145 0.439039,-1.20158 0,-0.207966 -0.138644,-0.415932 -0.369717,-0.647006 -1.016721,-0.947401 -0.623898,-0.300395 -1.571299,-0.462147 -0.947401,-0.161751 -1.340226,-0.300395 -1.155366,-0.439039 -1.779264,-1.501977 -0.600791,-1.086044 -0.600791,-2.380055 0,-2.056552 1.062937,-3.442992 0.808757,-0.762542 2.033446,-1.224688 1.247796,-0.462147 2.495591,-0.462147 1.941016,0 3.073275,1.062937 1.663728,1.201582 1.663728,3.396778 0,0.161752 -0.04622,0.670112 -0.716328,0.184859 -2.07966,0.184859 -1.340226,0 -1.617514,-0.207965 0.09243,-0.09243 0.09243,-0.254181 0,-0.577683 -0.462147,-0.924293 -0.462147,-0.369718 -1.062937,-0.369718 -0.577684,0 -0.716328,0.138644 l 0.09243,0.04622 q -0.854972,0.115537 -0.854972,1.109152 0,0.739435 0.531469,1.03983 0.554576,0.300395 1.386439,0.415932 0.854971,0.09242 1.132259,0.254181 1.663728,0.993614 2.125875,1.432653 1.247796,1.178474 1.247796,3.350564 0,1.432655 -0.600791,2.564914 -0.577683,1.109151 -1.709942,1.64062 0.06932,-0.09242 0.277288,-0.254181 0.231073,-0.161751 0.323502,-0.300395 h -0.25418 q -0.369718,0.231073 -0.531469,0.300395 l -0.485254,0.207966 q -0.485254,0.231073 -0.947401,0.554576 z M 50.221223,36.8343 50.68337,36.92672 h 0.0231 q 0.0231,-0.0231 0.06932,-0.0231 l 0.231074,-0.115537 v -0.462146 q 0,-1.73305 -1.571299,-2.726666 -1.016723,-0.623898 -1.848587,-0.854971 -0.808756,-0.231073 -0.831864,-0.231073 h -0.25418 q -0.739435,0 -1.501977,0.207966 -0.739434,0.207966 -1.086044,0.554576 -0.207966,0 -0.439039,0.207966 -0.207966,0.184858 -0.254181,0.184858 -0.0231,0 -0.0231,-0.04622 0,-0.04622 0.09243,-0.09243 0.09242,-0.06932 0.231073,-0.138644 0.138644,-0.09243 0.207966,-0.207966 -0.323502,0.06932 -0.716327,0.531469 -0.392825,0.462147 -0.392825,0.623898 0,-0.184859 0.415932,-0.415932 l 0.04622,0.138644 q -0.439039,0.415932 -0.647005,0.878079 -0.184859,0.439039 -0.323503,0.854971 -0.115537,0.392825 -0.231073,0.69322 -0.09243,0.300395 -0.09243,0.9474 0,1.455762 1.38644,2.611128 0,0.254181 0.323503,0.392825 0.369717,0.115537 0.993616,0.254181 0.623898,0.138644 1.03983,0.25418 0.439039,0.115537 0.9474,0.323503 1.062938,0.392825 1.594406,1.294011 0.138644,0.277288 0.138644,0.577683 0,0.716328 -0.623898,1.294011 -0.60079,0.577682 -1.409547,0.577682 -0.508361,0 -0.739435,-0.115536 -0.207966,-0.138644 -0.323502,-0.207966 -0.09243,-0.06932 -0.231074,-0.231074 -0.115536,-0.16175 -0.161751,-0.231072 -0.277288,-0.415932 -0.323503,-0.508361 -0.25418,-0.09243 -0.716327,-0.09243 l -1.756158,0.138644 h -0.207966 q -0.16175,0 -0.184857,-0.0231 0.231072,1.617513 0.415931,1.617513 0.277288,0.808757 1.201581,1.47887 0.924293,0.647005 1.709943,0.647005 0.161751,0 0.254181,-0.09243 0.06932,0.06932 0.231073,0.06932 h 0.115537 l 0.9474,0.161751 q 2.195197,0 4.06689,-2.472485 0.462147,-1.03983 0.462147,-1.941016 0,-0.901185 -0.207966,-1.455761 -0.184859,-0.577683 -0.415932,-0.901186 -0.231074,-0.34661 -0.78565,-0.69322 -0.531467,-0.34661 -0.831863,-0.462147 -0.300395,-0.138644 -1.03983,-0.462146 l -2.241415,-0.947412 q -0.670113,-0.323503 -0.670113,-1.478868 0,-0.762542 0.34661,-1.294011 0.369718,-0.554576 1.201582,-0.554576 0.831863,0 1.386439,0.577683 0.577683,0.554576 0.785649,1.340226 0.323503,0.06932 0.716327,0.06932 z" />
    <path
       inkscape:connector-curvature="0"
       id="path933"
       style="font-style:normal;font-variant:normal;font-weight:normal;font-stretch:normal;font-size:21.33333397px;line-height:1;font-family:'Londrina Sketch';-inkscape-font-specification:'Londrina Sketch, Normal';font-variant-ligatures:normal;font-variant-caps:normal;font-variant-numeric:normal;font-feature-settings:normal;text-align:start;letter-spacing:0px;word-spacing:0px;writing-mode:lr-tb;text-anchor:start;fill:#ff5454;fill-opacity:1;stroke:none;stroke-width:1.08315611px;stroke-linecap:butt;stroke-linejoin:miter;stroke-opacity:1"
       d="m 61.991521,35.263001 q -0.207966,0.115537 -0.207966,0.254181 0,0.115537 -0.0231,0.115537 l -0.207966,-0.0231 q -0.04622,0.04622 -0.277288,0.0231 -0.231073,-0.0231 -0.369717,-0.0231 l -0.762542,0.04622 q -0.254181,0 -0.277288,-0.0231 l -0.878079,0.04622 q -0.09243,0.207966 -0.09243,0.831864 l 0.0231,0.623898 -0.04622,2.518699 q 0,0.831864 0.06932,1.062937 0.09243,0.231073 0.09243,1.247796 l -0.09243,2.934632 q 0,0.831864 0.138644,3.003952 l -0.254181,0.138644 -0.04622,-0.04622 q -1.571298,0.09243 -3.442993,0.09243 l -0.0231,-0.04622 0.09242,-0.300395 v -0.04622 q 0.0231,-0.207966 0.0231,-0.392825 v -0.207966 q -0.04622,-0.34661 -0.09243,-0.439039 l -0.04622,0.138644 v 0.34661 q 0,0.231073 -0.09243,0.323503 v -0.09243 q 0.115537,-1.317117 0.115537,-2.380054 l -0.0231,-1.73305 q 0.04622,-0.277288 0.06932,-0.300396 -0.0231,-0.392824 -0.0231,-0.554576 l 0.0231,-0.462146 v -0.06932 q 0.115536,-0.300396 0.115536,-0.554576 0,-0.254181 -0.04622,-0.300396 l -0.04622,-0.231073 0.04622,-0.878079 q 0,-0.231072 -0.04622,-0.554575 l 0.09243,0.04622 q 0.0231,-0.0231 0.0231,-0.161751 0,-0.138644 -0.06932,-0.207966 -0.0231,-0.207966 -0.0231,-0.43904 v -0.115536 h -0.04622 l 0.0231,-0.161752 -0.09243,-2.010338 -0.0231,-0.34661 0.138644,-0.323502 q -0.138644,0 -0.485254,-0.09243 -0.207966,0.09243 -0.623898,0.09243 l -0.762542,-0.0231 -0.716327,0.0231 q -0.34661,0 -0.485254,-0.04622 -0.04622,-0.254181 -0.04622,-1.062937 v -0.623898 q 0,-0.485254 -0.0231,-0.69322 l -0.04622,-0.554575 q 0,-0.300396 0.115537,-0.647006 l -0.09243,-0.161751 h 0.0231 l 0.577683,0.04622 q 0.577684,0.04622 0.924294,0.04622 0.369717,0 0.739434,-0.04622 l 0.878078,0.0231 0.69322,0.0231 q 1.247796,0 2.010338,-0.09242 l 0.09243,0.06932 q 1.802372,0.115537 3.373669,0.115537 0.300396,0 0.508362,0.161751 l -0.0231,0.831863 -0.0231,-0.0231 -0.04622,0.06932 z m -2.449378,0.0231 2.125875,-0.115537 0.06932,-2.380054 q 0,-0.531469 -0.231073,-0.531469 h -0.34661 q -0.184859,0 -0.34661,0.09243 -0.06932,0 -0.09243,-0.0231 0.0231,-0.0231 0.0231,-0.138644 v -0.0231 q -0.184859,0.184858 -0.300396,0.184858 -0.09243,0 -0.161751,-0.09243 -0.0231,0.09243 -0.115537,0.09243 -0.09243,0 -0.115536,0 -0.0231,-0.0231 -0.06932,-0.0231 l 0.09243,-0.04622 h -0.161751 v 0.06932 l -0.04622,0.0231 h -0.04622 l 0.0231,-0.0231 q -0.161752,-0.06932 -1.802372,-0.06932 -1.640621,0 -2.957738,0.09243 -0.09243,-0.0231 -0.09243,-0.06932 l -1.224688,-0.06932 -0.06932,0.09242 q -0.231074,-0.04622 -0.254181,-0.04622 l -0.739435,0.06932 q -0.207966,0 -0.231073,-0.0231 v 0.06932 l -0.0231,0.439039 q 0,0.323503 0.09243,0.716328 l 0.04622,0.277288 v 0.60079 q 0,0.508362 0.04622,0.808757 0.462147,0.138644 1.201582,0.138644 l 1.686834,-0.04622 q 0.300395,0.09243 0.300395,0.115537 -0.0231,0.06932 -0.06932,0.531469 0.06932,1.663728 0.06932,3.396777 l -0.115536,8.064458 q 0,0.161752 2.77288,0.34661 l 0.115537,-1.201581 v -2.611128 q 0,-0.369717 0.0231,-0.531468 l -0.115537,-6.978414 -0.04622,-0.231074 0.0231,-0.34661 q 0,-0.04622 -0.0231,-0.161751 0.06932,-0.09243 0.138644,-0.231073 0.09243,-0.254181 0.161751,-0.254181 v -0.0231 l 0.600791,0.06932 z" />
    <path
       inkscape:connector-curvature="0"
       id="path935"
       style="font-style:normal;font-variant:normal;font-weight:normal;font-stretch:normal;font-size:21.33333397px;line-height:1;font-family:'Londrina Sketch';-inkscape-font-specification:'Londrina Sketch, Normal';font-variant-ligatures:normal;font-variant-caps:normal;font-variant-numeric:normal;font-feature-settings:normal;text-align:start;letter-spacing:0px;word-spacing:0px;writing-mode:lr-tb;text-anchor:start;fill:#ffffff;fill-opacity:1;stroke:none;stroke-width:1.08315611px;stroke-linecap:butt;stroke-linejoin:miter;stroke-opacity:1"
       d="m 67.204026,46.192768 -0.09243,-0.577683 v -0.06932 q 0.04622,-0.06932 0.09243,-0.06932 l 0.115537,0.0231 q 0.04622,0 0.06932,-0.0231 v -0.0231 q 0.115537,0 0.115537,-0.04622 1.03983,-0.531469 1.03983,-2.403162 v -0.600791 q 0,-1.38644 0.600791,-1.917908 l 0.0231,-0.04622 q 0.04622,-0.04622 0.04622,-0.06932 h 0.04622 l 0.09243,-0.06932 0.0231,-0.0231 q -0.161751,-0.09243 -0.207966,-0.161752 h -0.04622 q 0,-0.0231 -0.0231,-0.04622 h -0.04622 l -0.06932,-0.09243 h -0.04622 l -0.0231,-0.09243 q -0.138644,-0.138644 -0.184859,-0.392825 l -0.04622,-0.09242 q -0.0231,-0.0231 -0.0231,-0.231073 h -0.0231 q -0.04622,-0.323503 -0.04622,-0.392825 l -0.04622,-0.878079 v -0.184858 l 0.0231,-0.78565 v -0.462146 q 0,-1.340226 -0.69322,-1.340226 l -0.04622,-0.04622 -0.300395,-0.0231 v -0.0231 l -0.207966,-0.06932 q -0.138644,-0.04622 -0.138644,-0.207966 h 0.04622 q 0.0231,-0.0231 0.0231,-0.184859 v -0.462146 q -0.04622,-0.138644 -0.04622,-0.231074 V 32.53636 q 0,-0.09243 -0.04622,-0.323503 0.16175,-0.161751 0.600789,-0.161751 h 0.762542 q 3.096383,0 3.096383,2.726665 l -0.04622,1.386439 q 0,0.970508 0.462146,1.73305 0.462146,0.762542 1.386439,0.762542 l 0.43904,-0.0231 q 0.323502,0 0.392824,0.138644 0.09243,0.138644 0.09243,0.600791 0,0.462146 -0.09243,0.623898 h -0.0231 l -0.04622,0.415932 q 0.06932,0.369717 0.04622,0.762542 0,0.369717 -0.207965,0.485254 -0.184859,0.115536 -0.508361,0.138644 -0.300396,0.0231 -0.415932,0.09243 -1.617514,0.647004 -1.617514,3.697173 l 0.0231,0.485254 q 0,0.9474 -0.577684,1.224688 v 0.04622 h -0.04618 q -0.04622,0.184859 -0.184859,0.207966 v 0.04622 q -0.184859,0.115536 -0.184859,0.138644 l -0.231073,0.09243 q -0.0231,0.0231 -0.0231,0.04622 -0.138644,0.0231 -0.138644,0.06932 h -0.04622 l -0.184859,0.09243 v 0.0231 l -0.392824,0.09242 -0.277288,0.04622 q -0.462147,0.115537 -0.947401,0.115537 h -0.161752 l -0.462146,-0.0231 q -0.06932,0 -0.09243,0.0231 l -0.115536,-0.0231 q -0.06932,0 -0.09243,-0.0231 v 0.0231 q -0.115536,0 -0.138644,0.0231 v -0.04622 q -0.0231,-0.0231 -0.04622,-0.0231 0,-0.06932 0.0231,-0.09243 l -0.0231,-0.06932 -0.0231,-0.69322 q 0,-0.300396 0.0231,-0.323503 l -0.0231,-0.34661 0.04622,-0.415932 q 0.0231,-0.0231 0.0231,-0.115537 z m 1.548192,-8.457283 -0.0231,0.184859 v 0.369717 l 0.09243,0.647005 q 0,0.138644 0.0231,0.161752 h 0.0231 l 0.04622,0.138644 q 0,0.207966 0.09243,0.300395 l 0.184858,0.231073 h 0.04622 q 0,0.115537 0.647005,0.323503 l 0.06932,0.09243 V 40.3004 q -0.0231,0 -0.04622,0.0231 v 0.04622 q -0.0231,0 -0.04622,0.0231 l -0.06932,0.0231 -0.09243,0.115536 -0.115537,0.06932 q -0.254181,0.254181 -0.392825,0.254181 v 0.06932 q -0.0231,0.06932 -0.115535,0.138644 v 0.04622 q 0,0.0231 -0.04622,0.09243 -0.04622,0.04622 -0.06932,0.04622 l -0.138644,0.739434 q -0.04622,0.231074 -0.04622,0.323503 l -0.0231,1.294011 q 0,0.254181 0.0231,0.369717 l -0.04622,0.300396 -0.09243,0.277288 q -0.0231,0.0231 -0.0231,0.138644 h -0.0231 q -0.0231,0.0231 -0.0231,0.09243 h -0.0231 q -0.0231,0.06932 -0.0231,0.161751 0,0.06932 -0.0231,0.06932 l -0.09243,0.184859 q -0.04622,0.04622 -0.138644,0.115537 -0.06932,0.06932 -0.09243,0.115536 l -0.25418,0.161752 -0.531469,0.115535 v 0.670113 q 0.06932,0.207966 0.06932,0.231073 l -0.04622,0.34661 0.0231,0.554576 q 0,0.207966 -0.0231,0.231074 l 0.0231,0.300395 q 0.115536,0 0.277288,-0.115537 l 0.0231,0.0231 -0.04622,0.138644 0.184859,0.0231 v 0.0231 q 0.415932,0 1.501977,-0.161751 v -0.0231 l 0.138644,-0.0231 v -0.0231 l 0.115537,-0.04622 q 0.09243,0 0.369717,-0.161751 l -0.0231,0.0231 q -0.0231,0 0.09243,-0.115536 0.323503,-0.415932 0.69322,-0.554576 l 0.0231,-0.0231 0.0231,0.04622 q 0.0231,-0.0231 0,-0.04622 0,-0.04622 0,-0.06932 0.25418,-0.25418 0.369717,-0.531468 0,-0.06932 -0.06932,-0.09242 v -0.06932 l 0.06932,0.0231 v -0.06932 l -0.04622,-0.0231 q 0.04622,-0.04622 0.115537,-0.277288 h -0.04622 q 0.04622,-0.25418 0.138644,-0.34661 v -0.808756 l -0.04622,-0.415932 0.0231,-0.115537 0.0231,-1.155367 q 0,-0.184859 0.06932,-0.184859 l 0.207966,-0.439039 q 0,-0.09243 0.0231,-0.115537 h 0.0231 q 0,-0.138644 0.06932,-0.138644 v -0.04622 l 0.161751,-0.161752 h 0.04622 q 0.161751,-0.161751 0.207966,-0.161751 v -0.04622 h 0.04622 l 0.06932,-0.09243 0.647005,-0.231073 0.300395,-0.04622 q 0.06932,-0.0231 0.392825,-0.0231 0.323503,0 0.323503,-0.300396 l -0.0231,-0.323502 0.0231,-0.462147 q 0,-0.0231 -0.04622,-0.34661 l -0.02308,-0.6701 q 0,-0.161751 -0.06932,-0.231073 l -0.09243,0.0231 -0.300395,-0.04622 q -0.0231,-0.0231 -0.184859,-0.0231 l -0.277288,-0.0231 -0.231073,-0.04622 q -0.508361,-0.207966 -0.739435,-0.439039 h -0.04622 q -0.04622,-0.04622 -0.04622,-0.06932 h -0.04622 l -0.161751,-0.161751 v -0.04622 q -0.0231,-0.0231 -0.04622,-0.0231 v -0.04622 q -0.06932,0 -0.115536,-0.207966 l -0.04622,-0.06932 -0.184859,-0.554576 0.04622,-0.277288 h -0.0231 l 0.0231,-0.09243 -0.0231,-0.485254 v -0.09242 h 0.0231 q 0.0231,-0.0231 0.0231,-0.138644 v -0.207966 l -0.06932,-0.762542 q 0,-0.04622 0.0231,-0.04622 v -0.115537 h -0.06932 v -0.947401 q 0,-0.161751 -0.0231,-0.207966 l -0.161751,-0.531468 -0.09243,-0.06932 v -0.04622 l -0.277288,-0.277288 h -0.04622 L 70.41594,32.813618 h -0.04622 l -0.231073,-0.09243 q -0.161751,0 -0.184859,-0.0231 l -0.161751,-0.04622 q -0.577673,-0.184856 -0.646995,-0.115534 v -0.0231 l -0.0231,0.0231 -0.254181,-0.0231 H 68.45183 l -0.115536,-0.0231 -0.0231,0.0231 H 67.82794 q -0.06932,0 -0.09243,0.0231 l -0.231073,-0.0231 q -0.0231,0 -0.0231,0.04622 l -0.0231,0.184859 v 0.462147 q -0.0231,0.0231 -0.0231,0.25418 v 0.254181 q 0.0231,0.0231 0.0231,0.04622 h -0.0231 l 0.0231,0.207966 -0.0231,0.04622 q 0.04622,0.04622 0.04622,0.254181 l -0.0231,0.277288 0.04622,0.161751 q 0.0231,0.0231 0.09243,0.0231 v 0.0231 q 0.323503,0.04622 0.34661,0.04622 v 0.0231 q 0.06932,0 0.277288,0.138644 h 0.04622 l 0.161751,0.115537 q 0.09243,0 0.254181,0.508361 l 0.06932,1.016723 -0.0231,1.086044 z m 1.224689,9.95926 v -0.0231 q 0,-0.0231 0.0231,-0.0231 v 0.04622 z" />
  </g>
</svg>
