<?xml version="1.0" encoding="UTF-8" standalone="no"?>
<svg
   xmlns:dc="http://purl.org/dc/elements/1.1/"
   xmlns:cc="http://creativecommons.org/ns#"
   xmlns:rdf="http://www.w3.org/1999/02/22-rdf-syntax-ns#"
   xmlns:svg="http://www.w3.org/2000/svg"
   xmlns="http://www.w3.org/2000/svg"
   xmlns:sodipodi="http://sodipodi.sourceforge.net/DTD/sodipodi-0.dtd"
   xmlns:inkscape="http://www.inkscape.org/namespaces/inkscape"
   width="80"
   height="80"
   viewBox="0 0 80 80"
   version="1.1"
   id="svg94"
   sodipodi:docname="pluginIcon.svg"
   inkscape:version="0.92.5 (0.92.5+68)">
  <metadata
     id="metadata98">
    <rdf:RDF>
      <cc:Work
         rdf:about="">
        <dc:format>image/svg+xml</dc:format>
        <dc:type
           rdf:resource="http://purl.org/dc/dcmitype/StillImage" />
        <dc:title></dc:title>
      </cc:Work>
    </rdf:RDF>
  </metadata>
  <sodipodi:namedview
     pagecolor="#ffffff"
     bordercolor="#666666"
     borderopacity="1"
     objecttolerance="10"
     gridtolerance="10"
     guidetolerance="10"
     inkscape:pageopacity="0"
     inkscape:pageshadow="2"
     inkscape:window-width="1920"
     inkscape:window-height="1056"
     id="namedview96"
     showgrid="false"
     inkscape:zoom="8.34386"
     inkscape:cx="34.4156"
     inkscape:cy="44.503877"
     inkscape:window-x="0"
     inkscape:window-y="24"
     inkscape:window-maximized="1"
     inkscape:current-layer="g92" />
  <defs
     id="defs72">
    <linearGradient
       id="pluginsdk_80-a"
       x1="-0.01035717"
       x2="33.427933"
       y1="40.749962"
       y2="40.749962"
       gradientTransform="matrix(0.89792871,0,0,1.1136742,8,8)"
       gradientUnits="userSpaceOnUse">
      <stop
         offset="25.81%"
         stop-color="#F97A12"
         id="stop2" />
      <stop
         offset="45.91%"
         stop-color="#B07B58"
         id="stop4" />
      <stop
         offset="72.41%"
         stop-color="#577BAE"
         id="stop6" />
      <stop
         offset="91.05%"
         stop-color="#1E7CE5"
         id="stop8" />
      <stop
         offset="100%"
         stop-color="#087CFA"
         id="stop10" />
    </linearGradient>
    <linearGradient
       id="pluginsdk_80-b"
       x1="40.00824"
       x2="68.705269"
       y1="18.115879"
       y2="40.733696"
       gradientTransform="matrix(0.8201327,0,0,1.2193149,8,8)"
       gradientUnits="userSpaceOnUse">
      <stop
         offset="0%"
         stop-color="#F97A12"
         id="stop13" />
      <stop
         offset="7.18%"
         stop-color="#CB7A3E"
         id="stop15" />
      <stop
         offset="15.41%"
         stop-color="#9E7B6A"
         id="stop17" />
      <stop
         offset="24.2%"
         stop-color="#757B91"
         id="stop19" />
      <stop
         offset="33.44%"
         stop-color="#537BB1"
         id="stop21" />
      <stop
         offset="43.24%"
         stop-color="#387CCC"
         id="stop23" />
      <stop
         offset="53.81%"
         stop-color="#237CE0"
         id="stop25" />
      <stop
         offset="65.52%"
         stop-color="#147CEF"
         id="stop27" />
      <stop
         offset="79.25%"
         stop-color="#0B7CF7"
         id="stop29" />
      <stop
         offset="100%"
         stop-color="#087CFA"
         id="stop31" />
    </linearGradient>
    <linearGradient
       id="pluginsdk_80-c"
       x1="64.109039"
       x2="55.996876"
       y1="35.495808"
       y2="-2.3931761"
       gradientTransform="matrix(0.82572282,0,0,1.2110601,8,8)"
       gradientUnits="userSpaceOnUse">
      <stop
         offset="0%"
         stop-color="#FE315D"
         id="stop34" />
      <stop
         offset="7.84%"
         stop-color="#CB417E"
         id="stop36" />
      <stop
         offset="16.01%"
         stop-color="#9E4E9B"
         id="stop38" />
      <stop
         offset="24.74%"
         stop-color="#755BB4"
         id="stop40" />
      <stop
         offset="33.92%"
         stop-color="#5365CA"
         id="stop42" />
      <stop
         offset="43.65%"
         stop-color="#386DDB"
         id="stop44" />
      <stop
         offset="54.14%"
         stop-color="#2374E9"
         id="stop46" />
      <stop
         offset="65.76%"
         stop-color="#1478F3"
         id="stop48" />
      <stop
         offset="79.4%"
         stop-color="#0B7BF8"
         id="stop50" />
      <stop
         offset="100%"
         stop-color="#087CFA"
         id="stop52" />
    </linearGradient>
    <linearGradient
       id="pluginsdk_80-d"
       x1="15.433212"
       x2="57.18166"
       y1="14.694787"
       y2="80.800919"
       gradientTransform="matrix(0.95197164,0,0,1.0504515,8,8)"
       gradientUnits="userSpaceOnUse">
      <stop
         offset="0%"
         stop-color="#FE315D"
         id="stop55" />
      <stop
         offset="4.023%"
         stop-color="#F63462"
         id="stop57" />
      <stop
         offset="10.37%"
         stop-color="#DF3A71"
         id="stop59" />
      <stop
         offset="16.67%"
         stop-color="#C24383"
         id="stop61" />
      <stop
         offset="29.12%"
         stop-color="#AD4A91"
         id="stop63" />
      <stop
         offset="54.98%"
         stop-color="#755BB4"
         id="stop65" />
      <stop
         offset="91.75%"
         stop-color="#1D76ED"
         id="stop67" />
      <stop
         offset="100%"
         stop-color="#087CFA"
         id="stop69" />
    </linearGradient>
  </defs>
  <g
     id="g92"
     style="fill:none;fill-rule:evenodd">
    <g
       id="g864"
       transform="matrix(1.0831561,0,0,1.0831561,-3.8678016,-3.3262388)">
      <path
         d="m 15.277833,45.077332 0.106667,-0.02133 q 0.04267,0 0.08533,0.064 v 0.064 l -0.08533,0.533333 q 0,0.08533 0.02133,0.106667 l 0.04267,0.384 -0.02133,0.32 q 0.02133,0.02133 0.02133,0.298667 l -0.02133,0.64 -0.02133,0.064 q 0.02133,0.02133 0.02133,0.08533 -0.02133,0 -0.04267,0.02133 v 0.04267 q -0.02133,-0.02133 -0.128,-0.02133 v -0.02133 q -0.02133,0.02133 -0.08533,0.02133 l -0.106666,0.02133 q -0.02133,-0.02133 -0.08533,-0.02133 l -0.426666,0.02133 h -0.149334 q -0.448,0 -0.874666,-0.106667 l -0.256,-0.04267 -0.362667,-0.08533 v -0.02133 l -0.170667,-0.08533 H 12.6965 q 0,-0.04267 -0.128,-0.064 0,-0.02133 -0.02133,-0.04267 l -0.213333,-0.08533 q 0,-0.02133 -0.170667,-0.128 v -0.04267 q -0.128,-0.02133 -0.170666,-0.192 h -0.04267 v -0.04267 Q 11.4165,46.485332 11.4165,45.610666 l 0.02133,-0.448 q 0,-2.816001 -1.4933335,-3.413334 -0.1066667,-0.064 -0.4053334,-0.08533 -0.6186667,-0.04267 -0.6613333,-0.490667 0,-0.448 0.064,-0.789333 l -0.042667,-0.384 h -0.021333 q -0.085333,-0.149334 -0.085333,-0.576 0,-0.426667 0.085333,-0.554667 0.064,-0.128 0.3626667,-0.128 l 0.4053333,0.02133 q 0.8533332,0 1.2800002,-0.704 0.426667,-0.704 0.426667,-1.6 l -0.04267,-1.28 q 0,-2.517333 2.858667,-2.517333 h 0.704 q 0.405333,0 0.554666,0.149333 -0.04267,0.213334 -0.04267,0.298667 v 1.237333 q -0.04267,0.213334 -0.04267,0.213334 v 0.426666 q 0,0.149334 0.02133,0.170667 h 0.04267 q 0,0.149333 -0.128,0.192 l -0.192,0.064 v 0.02133 l -0.277333,0.02133 -0.04267,0.04267 q -0.64,0 -0.64,1.237334 v 0.618666 l 0.02133,0.704 -0.04267,0.810667 q 0,0.064 -0.04267,0.362667 H 14.0405 q 0,0.192 -0.02133,0.213333 l -0.04267,0.08533 q -0.04267,0.234667 -0.170667,0.362667 l -0.02133,0.08533 h -0.04267 l -0.064,0.08533 h -0.04267 q -0.02133,0.02133 -0.02133,0.04267 h -0.04267 l -0.192,0.149334 0.106667,0.08533 h 0.04267 q 0,0.02133 0.04267,0.064 l 0.02133,0.04267 q 0.554666,0.490666 0.554666,1.770666 v 0.554667 q 0,1.834667 1.066667,2.261334 v 0.02133 q 0.02133,0.02133 0.064,0.02133 z m -2.474667,2.026667 q 0.064,0.04267 0.448,0.192 v 0.02133 l 0.128,0.02133 v 0.02133 q 1.002667,0.149333 1.386667,0.149333 v -0.02133 q 0.02133,0 0.08533,0 0.064,-0.02133 0.08533,-0.02133 l -0.04267,-0.128 0.02133,-0.02133 q 0.149334,0.106667 0.256,0.106667 l 0.02133,-0.277333 q -0.02133,-0.02133 -0.02133,-0.213334 l 0.02133,-0.512 -0.04267,-0.32 q 0,-0.02133 0.064,-0.213333 V 45.269332 L 14.723166,45.162666 14.4885,45.013332 q -0.106667,-0.106666 -0.213334,-0.213333 l -0.08533,-0.170667 q -0.02133,0 -0.02133,-0.04267 l -0.02133,-0.170667 h -0.02133 q 0,-0.064 -0.02133,-0.08533 h -0.02133 q 0,-0.106667 -0.02133,-0.128 l -0.08533,-0.256 -0.04267,-0.277334 q 0.02133,-0.106666 0.02133,-0.341333 l -0.02133,-1.194667 q 0,-0.08533 -0.04267,-0.298667 l -0.128,-0.682666 q -0.02133,0 -0.064,-0.04267 -0.04267,-0.064 -0.04267,-0.08533 v -0.04267 q -0.04267,0 -0.106667,-0.128 v -0.064 q -0.128,0 -0.362667,-0.234667 l -0.106666,-0.064 -0.08533,-0.106666 -0.064,-0.02133 q -0.02133,-0.02133 -0.04267,-0.02133 v -0.04267 q -0.02133,-0.02133 -0.04267,-0.02133 v -0.106667 l 0.064,-0.08533 q 0.597333,-0.192 0.597333,-0.298667 h 0.04267 L 13.7205,39.573332 q 0.08533,-0.08533 0.08533,-0.277333 l 0.04267,-0.128 h 0.02133 q 0.02133,-0.02133 0.02133,-0.149334 l 0.08533,-0.597333 v -0.341333 l -0.02133,-0.170667 0.02133,-0.04267 -0.02133,-1.002666 0.064,-0.938667 0.04267,-0.128 q 0.149333,-0.341333 0.192,-0.341333 l 0.149333,-0.106667 h 0.04267 q 0.192,-0.128 0.256,-0.128 v -0.02133 q 0.02133,0 0.32,-0.04267 v -0.02133 q 0.064,0 0.08533,-0.02133 l 0.04267,-0.149333 -0.02133,-0.256 q 0,-0.192 0.04267,-0.234667 l -0.02133,-0.04267 0.02133,-0.192 h -0.02133 q 0,-0.02133 0.02133,-0.04267 v -0.234667 q 0,-0.213333 -0.02133,-0.234666 v -0.426667 q -0.02133,-0.04267 -0.02133,-0.128 0,-0.08533 -0.02133,-0.08533 l -0.213333,0.02133 q -0.02133,-0.02133 -0.08533,-0.02133 h -0.448 l -0.02133,-0.02133 -0.106666,0.02133 h -0.384 l -0.234667,0.02133 -0.02133,-0.02133 v 0.02133 q -0.02133,-0.02133 -0.192,0 -0.064,0 -0.32,0.08533 -0.256,0.08533 -0.405334,0.08533 l -0.213333,0.08533 h -0.04267 l -0.192,0.192 H 12.1845 l -0.256,0.256 v 0.04267 l -0.08533,0.064 -0.149333,0.490666 q -0.02133,0.064 -0.02133,0.192 v 0.874667 h -0.064 v 0.106667 q 0.02133,0 0.02133,0.04267 l -0.064,0.704 v 0.192 q 0,0.106667 0.02133,0.128 h 0.02133 v 0.08533 l -0.02133,0.448 0.02133,0.08533 h -0.02133 l 0.04267,0.256 -0.170667,0.512 -0.04267,0.064 q -0.04267,0.192 -0.106667,0.192 v 0.04267 q -0.02133,0 -0.04267,0.02133 v 0.04267 l -0.149333,0.149333 h -0.04267 q 0,0.02133 -0.04267,0.064 h -0.04267 q -0.213334,0.213333 -0.682667,0.405333 l -0.213333,0.04267 -0.2560002,0.02133 q -0.1493333,0 -0.1706667,0.02133 l -0.2773333,0.04267 -0.085333,-0.02133 q -0.064,0.064 -0.064,0.213333 l -0.021333,0.618667 q -0.042667,0.298667 -0.042667,0.32 l 0.021333,0.426667 -0.021333,0.298666 q 0,0.277334 0.2986667,0.277334 0.2986667,0 0.3626667,0.02133 l 0.2773328,0.04267 0.597333,0.213333 0.064,0.08533 h 0.04267 v 0.04267 q 0.04267,0 0.192,0.149333 h 0.04267 l 0.149333,0.149334 v 0.04267 q 0.064,0 0.064,0.128 h 0.02133 q 0.02133,0.02133 0.02133,0.106667 l 0.192,0.405333 q 0.064,0 0.064,0.170667 l 0.02133,1.066667 0.02133,0.106667 -0.04267,0.384 v 0.746666 q 0.08533,0.08533 0.128,0.32 h -0.04267 q 0.064,0.213334 0.106667,0.256 l -0.04267,0.02133 v 0.064 l 0.064,-0.02133 v 0.064 q -0.064,0.02133 -0.064,0.08533 0.106667,0.256 0.341334,0.490666 0,0.02133 -0.02133,0.064 0,0.02133 0.02133,0.04267 l 0.02133,-0.04267 0.02133,0.02133 q 0.256,0.128 0.490667,0.362666 l 0.234667,0.256 q -0.02133,0 -0.02133,-0.02133 z m 0,0 v -0.04267 l 0.02133,0.04267 z"
         style="font-style:normal;font-variant:normal;font-weight:normal;font-stretch:normal;font-size:21.33333397px;line-height:1;font-family:'Londrina Sketch';-inkscape-font-specification:'Londrina Sketch, Normal';font-variant-ligatures:normal;font-variant-caps:normal;font-variant-numeric:normal;font-feature-settings:normal;text-align:start;letter-spacing:0px;word-spacing:0px;writing-mode:lr-tb;text-anchor:start;fill:#000000;fill-opacity:1;stroke:none;stroke-width:1px;stroke-linecap:butt;stroke-linejoin:miter;stroke-opacity:1"
         id="path925"
         inkscape:connector-curvature="0" />
      <path
         d="m 30.692833,47.423999 -2.346666,0.08533 H 27.9835 q -0.874667,0 -0.874667,-0.362666 0,-0.08533 0.04267,-0.08533 l 0.08533,0.04267 0.04267,-0.04267 q -0.149333,-0.256 -0.426667,-0.746666 l -0.448,-0.832 Q 25.9995,44.757332 25.658167,43.839999 l -1.301334,-1.856 v 1.024 q 0,2.752 0.149334,3.968 l -0.04267,0.02133 0.213333,0.192 q -0.106666,0 -0.149333,0.128 -0.04267,0.128 -0.08533,0.149334 -0.04267,-0.04267 -0.08533,-0.04267 l -0.106666,0.04267 q -0.02133,0 -0.08533,-0.064 l -1.642666,0.08533 h -0.256001 l -0.576,-0.04267 H 21.476833 L 21.1995,47.402666 q -0.08533,0 -0.08533,0.04267 v 0.02133 q -0.04267,-0.04267 -0.04267,-0.064 l -0.04267,0.08533 -0.08533,-0.106667 -0.08533,0.064 -0.04267,-0.170666 q 0.106666,-0.597334 0.106666,-0.746667 0,-0.149333 -0.04267,-0.405333 -0.04267,-0.256 -0.04267,-0.426667 l 0.02133,0.02133 q 0.02133,0 0.02133,0.04267 0.04267,-0.04267 0.04267,-0.128 v -0.704 l 0.04267,-2.112 -0.170667,-7.445334 q 0,-1.578666 0.02133,-2.752 l 0.256,-0.298666 0.106666,0.192 q 0.02133,0.02133 0.192,0.02133 h 0.170667 q 0.277333,0 1.578667,-0.192 l -0.04267,0.04267 q 0.384,0.064 0.810667,0.064 l 1.536,-0.04267 h 0.298667 q 0.256,0 0.298666,0.02133 l 0.064,-0.064 q -0.064,0 -0.234666,-0.04267 1.557333,0.128 3.328,1.173333 l -0.02133,0.04267 q 0.704,0.490666 1.237334,2.048 0.02133,-0.02133 0.02133,-0.106667 0.064,0.490667 0.064,1.152 0,2.837333 -1.664,3.861333 -0.32,0.149334 -0.96,0.32 -0.618667,0.170667 -0.768,0.213334 0.298667,0.533333 0.789333,1.258666 l 0.853334,1.216001 q 1.429333,2.048 1.578666,2.730666 0.064,0.298667 0.512,1.066667 v 0.04267 q 0.04267,0 0.04267,0.04267 0.02133,0.02133 0.04267,0.02133 l -0.192,0.064 H 30.6715 Z m -8.298667,-0.170667 0.768001,0.064 q 0.192,0 0.426666,-0.064 h -0.04267 q 0.192,-0.128 0.490666,-0.192 l 0.106667,-3.328 q 0,-0.277333 -0.02133,-0.426666 l -0.064,0.106666 q -0.02133,-0.02133 -0.02133,-0.192 v -0.213333 q 0,-1.685334 0.128,-2.090667 0.064,0.128 0.064,0.234667 v 0.04267 q 0.128,0.04267 0.277334,0.298667 0.149333,0.234667 0.192,0.277333 l -0.04267,0.04267 q 1.301333,1.984 1.856,3.2 0.213333,0.256 0.448,0.917334 0.256,0.661333 0.597333,1.024 0.362667,0.362666 0.96,0.362666 0.597334,0 1.408,-0.128 l -0.04267,-0.08533 h 0.08533 l 0.384,0.08533 q 0.08533,0 0.128,-0.04267 -0.04267,-0.064 -0.128,-0.064 -0.064,0 -0.064,-0.02133 0,-0.02133 0.064,-0.08533 l -0.384,-0.789333 v -0.064 q 0,-0.170667 -0.384,-0.746667 -0.362667,-0.576 -0.448,-0.810667 -0.234667,-0.32 -0.725333,-1.173333 -0.469334,-0.853334 -0.832,-1.28 0.149333,0.298666 0.234666,0.384 -0.106666,-0.149334 -0.384,-0.448 -0.256,-0.298667 -0.405333,-0.469334 -0.384,-0.426666 -0.512,-0.917333 0.02133,0.02133 0.064,0.02133 0.512,0 1.045333,-0.341333 0.554667,-0.341333 0.938667,-0.874667 h 0.08533 q 0.746667,-1.002666 1.066667,-1.664 0.341333,-0.661333 0.341333,-1.472 0,0 -0.02133,-0.256 h -0.08533 v -0.149333 q 0,-1.173333 -1.984,-2.218667 l 0.02133,-0.02133 q 0.106667,0.04267 0.32,0.106667 0.469333,0.192 0.618667,0.341333 -1.472,-1.130667 -2.026667,-1.28 -0.896,-0.192 -2.816,-0.192 -1.92,0 -2.666667,0.106667 v 0.064 l 0.04267,0.192 0.106666,-0.04267 0.064,0.08533 0.512,-0.064 q 0.02133,0 0.064,0.02133 0.04267,0 0.064,0 -0.064,0.04267 -0.213333,0.064 -0.32,0.04267 -0.448,0.277333 v 0.128 q 0,0.298667 -0.128,0.682667 -0.149333,3.242666 -0.149333,4.16 0,0.917333 0.106666,2.218666 0.106667,1.301334 0.106667,1.386667 v 0.469333 l -0.04267,2.005334 q 0,0.810667 0.106667,1.365333 0.064,0.04267 0.064,0.08533 0,0.04267 -0.128,0.832 H 21.5195 q -0.04267,-0.02133 -0.08533,-0.106667 l 0.064,0.490667 q 0.08533,0.149333 0.384,0.149333 h 0.106667 q 0.192,0 0.213333,0.02133 l -0.02133,0.02133 z m 1.728001,-11.84 0.981333,0.02133 q 0.512,0 0.746667,-0.064 -0.106667,-0.106666 -0.106667,-0.128 0.064,0 0.341333,0.234667 0.298667,0.213333 0.597334,0.576 0.298666,0.341333 0.277333,0.512 0,0.170667 -0.02133,0.277333 0.02133,0.02133 0.02133,0.234667 0,0.597333 -0.768,1.130667 -0.064,0.02133 -0.234667,0.02133 -0.170666,0 -0.234666,0.128 -0.384,-0.106667 -0.704,-0.106667 l -0.810667,0.02133 h -0.256 q -0.128,0 -0.128,-0.106667 v -0.064 q 0,-0.064 -0.106667,-0.064 0.128,-0.213333 0.128,-0.298667 0,-0.106666 -0.02133,-0.128 0.02133,-0.02133 0.02133,-0.213333 v -0.874667 q 0,-0.618666 -0.106666,-0.704 l -0.04267,-0.384 z m 0.170666,2.752 0.981334,-0.064 q 0.32,0 0.341333,0.02133 0,-0.213333 0.213333,-0.213333 0.02133,0.02133 0.04267,0.02133 0.08533,0.02133 0.128,0.02133 -0.02133,0.02133 -0.08533,0.04267 -0.149334,0.04267 -0.149334,0.106667 0.405334,0 0.725334,-0.32 0.341333,-0.341333 0.341333,-0.789333 0,-1.429334 -1.92,-1.429334 l -0.917333,0.064 0.02133,0.490667 -0.04267,1.536 q 0,0.512 0.32,0.512 z"
         style="font-style:normal;font-variant:normal;font-weight:normal;font-stretch:normal;font-size:21.33333397px;line-height:1;font-family:'Londrina Sketch';-inkscape-font-specification:'Londrina Sketch, Normal';font-variant-ligatures:normal;font-variant-caps:normal;font-variant-numeric:normal;font-feature-settings:normal;text-align:start;letter-spacing:0px;word-spacing:0px;writing-mode:lr-tb;text-anchor:start;fill:#ff5454;fill-opacity:1;stroke:none;stroke-width:1px;stroke-linecap:butt;stroke-linejoin:miter;stroke-opacity:1"
         id="path927"
         inkscape:connector-curvature="0" />
      <path
         d="m 40.9025,45.290666 -0.08533,1.962666 -0.128,0.149334 -5.738667,0.02133 q -0.02133,-0.02133 -0.192,-0.02133 h -0.192 l -1.194667,0.08533 q -1.386666,0 -1.386666,-0.234667 0.02133,-0.02133 0.02133,-0.064 0,-0.064 0.02133,-0.08533 -0.04267,-0.298667 -0.04267,-0.384 l 0.04267,-0.768 v -0.170667 q 0,-0.149333 -0.02133,-0.170666 0.04267,-0.896 0.04267,-1.301334 l -0.170667,-4.906667 0.08533,-4.117333 q 0,-1.472 0.106667,-2.432 0.213333,-0.106667 0.512,-0.106667 2.282667,-0.04267 2.794667,-0.064 0.08533,0.064 0.32,0.064 h 0.64 l 1.770667,0.02133 q 1.152,0 2.218666,-0.064 l 0.064,-0.04267 q -0.170666,-0.106667 -0.405333,-0.106667 l -0.448,0.02133 H 39.4305 v -0.04267 q 0.746667,0 1.408,-0.08533 0.08533,0.02133 0.08533,0.106666 0,0.064 -0.128,0.192 0.064,0.256 0.064,0.810667 l -0.02133,1.194667 v 0.256 q 0,0.192 0.02133,0.234666 -0.04267,0.298667 -0.04267,0.469334 v 0.106666 q -0.405333,0.064 -2.666667,0.170667 -0.149333,0 -0.490666,-0.04267 l -2.453334,0.064 -0.04267,0.08533 0.02133,0.405333 -0.064,1.408 q 0,0.192 0.04267,0.576 l 0.08533,0.08533 2.581333,0.02133 q 0.064,0.128 0.064,0.618666 0,0.490667 -0.02133,1.301334 0,0.789333 0,1.194666 -0.256,-0.064 -1.386667,-0.064 -1.130666,0 -1.130666,0.064 l -0.128,0.213334 v 1.472 q 0,0.64 0.08533,0.917333 l -0.064,0.106667 0.08533,0.04267 3.648,0.064 q 0.896,0 1.792,-0.064 l 0.08533,0.106666 z m -6.08,1.749333 0.213334,0.04267 q 0.554666,0 4.8,-0.08533 l 0.618666,-0.064 q 0.08533,-0.277333 0.08533,-0.682666 0,-0.405334 -0.04267,-0.853334 -0.02133,-0.448 -0.02133,-0.64 -0.064,0.064 -0.149334,0.064 l -0.170666,-0.02133 q -0.106667,0 -0.170667,0.08533 -2.389333,-0.04267 -3.434667,-0.04267 H 35.22783 q -0.213334,0 -0.341334,-0.149334 l 0.02133,-0.02133 -0.128,-0.106667 q -0.02133,-0.04267 -0.02133,-0.32 v -1.216 l -0.106666,-0.832 q 0,-0.554667 0.02133,-0.618667 0.04267,-0.064 0.04267,-0.106666 0,-0.04267 0.554666,-0.106667 0.554667,-0.064 1.237334,-0.106667 0.704,-0.04267 0.810666,-0.04267 0.106667,-0.02133 0.106667,0.04267 h 0.128 q -0.02133,-0.02133 -0.02133,-0.170666 l 0.04267,-1.024 q 0,-1.045334 -0.256,-1.045334 -0.362666,0.064 -0.725333,0.064 l -1.301333,-0.08533 q -0.213334,0 -0.256,0.128 -0.213334,0 -0.256,-0.277333 L 34.7585,38.613332 q 0,-0.128 -0.08533,-0.192 l 0.04267,-0.704 -0.04267,-1.6 q 0,-0.213333 0.08533,-0.384 h 0.128 q 0.362667,0 0.725334,-0.08533 H 35.9105 q 0.426667,0 3.989334,-0.106667 0.469333,-0.04267 0.597333,-0.08533 l -0.04267,-2.325334 -0.04267,-0.064 q -0.192,0.064 -0.426667,0.064 l -1.152,-0.064 -0.768,0.02133 -1.621333,-0.04267 q -1.834667,0 -4.096001,0.384 l -0.064,0.149333 0.04267,1.450667 q -0.02133,0.02133 0,0.597333 0.04267,0.554667 0.04267,0.832 v 1.194667 q 0,0.064 0.064,0.213333 0.08533,0.128 0.08533,0.32 0,0.170667 -0.02133,0.32 l 0.08533,0.874667 q 0,0.448 -0.192,1.216 v 1.002667 q 0.02133,0.298666 0.02133,0.597333 0.02133,0.192 0.04267,0.192 0.04267,-0.02133 0.064,0 0.02133,-0.02133 0.02133,-0.064 0.02133,-0.04267 0.064,-0.04267 h 0.02133 l -0.02133,-0.149333 q 0,-0.064 0.064,-0.106667 0.064,0.192 0.064,0.469334 0,0.277333 -0.064,0.277333 -0.064,0 -0.064,-0.02133 0,-0.02133 -0.04267,-0.02133 l -0.02133,0.04267 q 0.02133,0 0.02133,0.064 0,0.04267 -0.064,0.149333 -0.04267,0.08533 -0.04267,0.106667 l 0.064,-0.02133 q 0.04267,0.08533 0.04267,0.277333 v 0.234667 q -0.04267,0.213333 -0.192,0.682667 v 0.08533 q -0.02133,0 -0.02133,0.02133 0,0.02133 0.213334,0.405334 0.213333,0.362666 0.213333,0.533333 0,0.149333 -0.064,0.149333 -0.04267,0 -0.064,-0.02133 0.02133,0.02133 0.02133,0.192 v 0.192 q -0.08533,0.768 -0.08533,1.216 0.149333,0.064 0.298667,0.064 l 0.682666,-0.064 z"
         style="font-style:normal;font-variant:normal;font-weight:normal;font-stretch:normal;font-size:21.33333397px;line-height:1;font-family:'Londrina Sketch';-inkscape-font-specification:'Londrina Sketch, Normal';font-variant-ligatures:normal;font-variant-caps:normal;font-variant-numeric:normal;font-feature-settings:normal;text-align:start;letter-spacing:0px;word-spacing:0px;writing-mode:lr-tb;text-anchor:start;fill:#ff5454;fill-opacity:1;stroke:none;stroke-width:1px;stroke-linecap:butt;stroke-linejoin:miter;stroke-opacity:1"
         id="path929"
         inkscape:connector-curvature="0" />
      <path
         d="m 47.355167,47.423999 -0.576,0.064 q -0.106667,0 -0.128,-0.02133 -0.04267,0.02133 -0.256,0.02133 H 46.1605 q -1.173333,0 -2.624,-0.362667 -0.512,-0.170666 -1.088,-1.045333 -0.256,-0.405333 -0.405333,-0.576 -0.554667,-0.917333 -0.661334,-2.517334 l 0.128,-0.106666 q 0.832,0.08533 1.664,0.08533 0.853334,0 1.386667,-0.08533 0.213334,0.064 0.298667,0.426667 0.106667,0.362666 0.213333,0.448 0.448,0.64 1.130667,0.64 0.682667,0 1.088,-0.405334 0.405333,-0.426666 0.405333,-1.109333 0,-0.192 -0.128,-0.384 -0.341333,-0.597334 -0.938666,-0.874667 -0.576,-0.277333 -1.450667,-0.426667 Q 44.3045,41.045332 43.941833,40.917332 42.875167,40.511999 42.299167,39.530665 41.7445,38.527999 41.7445,37.333332 q 0,-1.898667 0.981333,-3.178667 0.746667,-0.704 1.877334,-1.130666 1.152,-0.426667 2.304,-0.426667 1.792,0 2.837333,0.981333 1.536,1.109334 1.536,3.136 0,0.149334 -0.04267,0.618667 -0.661334,0.170667 -1.92,0.170667 -1.237334,0 -1.493334,-0.192 0.08533,-0.08533 0.08533,-0.234667 0,-0.533333 -0.426667,-0.853333 -0.426667,-0.341334 -0.981333,-0.341334 -0.533334,0 -0.661334,0.128 l 0.08533,0.04267 q -0.789334,0.106667 -0.789334,1.024 0,0.682667 0.490667,0.96 0.512,0.277333 1.28,0.384 0.789333,0.08533 1.045333,0.234667 1.536,0.917333 1.962667,1.322666 1.152,1.088 1.152,3.093334 0,1.322667 -0.554667,2.368 -0.533333,1.024 -1.578666,1.514667 0.064,-0.08533 0.256,-0.234667 0.213333,-0.149333 0.298666,-0.277333 h -0.234666 q -0.341334,0.213333 -0.490667,0.277333 l -0.448,0.192 q -0.448,0.213333 -0.874667,0.512 z m 2.581333,-10.346667 0.426667,0.08533 h 0.02133 q 0.02133,-0.02133 0.064,-0.02133 l 0.213334,-0.106667 v -0.426666 q 0,-1.6 -1.450667,-2.517334 -0.938667,-0.576 -1.706667,-0.789333 -0.746666,-0.213333 -0.768,-0.213333 h -0.234666 q -0.682667,0 -1.386667,0.192 -0.682667,0.192 -1.002667,0.512 -0.192,0 -0.405333,0.192 -0.192,0.170666 -0.234667,0.170666 -0.02133,0 -0.02133,-0.04267 0,-0.04267 0.08533,-0.08533 0.08533,-0.064 0.213333,-0.128 0.128,-0.08533 0.192,-0.192 -0.298666,0.064 -0.661333,0.490667 -0.362667,0.426667 -0.362667,0.576 0,-0.170667 0.384,-0.384 l 0.04267,0.128 q -0.405333,0.384 -0.597333,0.810667 -0.170667,0.405333 -0.298667,0.789333 -0.106667,0.362667 -0.213333,0.64 -0.08533,0.277333 -0.08533,0.874667 0,1.344 1.28,2.410666 0,0.234667 0.298667,0.362667 0.341333,0.106667 0.917334,0.234667 0.576,0.128 0.96,0.234666 0.405333,0.106667 0.874666,0.298667 0.981334,0.362667 1.472,1.194667 0.128,0.256 0.128,0.533333 0,0.661334 -0.576,1.194667 -0.554666,0.533333 -1.301333,0.533333 -0.469333,0 -0.682667,-0.106666 -0.192,-0.128 -0.298666,-0.192 -0.08533,-0.064 -0.213334,-0.213334 -0.106666,-0.149333 -0.149333,-0.213333 -0.256,-0.384 -0.298667,-0.469333 -0.234666,-0.08533 -0.661333,-0.08533 l -1.621334,0.128 h -0.192 q -0.149333,0 -0.170666,-0.02133 0.213333,1.493333 0.384,1.493333 0.256,0.746667 1.109333,1.365334 0.853333,0.597333 1.578667,0.597333 0.149333,0 0.234667,-0.08533 0.064,0.064 0.213333,0.064 h 0.106667 l 0.874666,0.149333 q 2.026667,0 3.754667,-2.282667 0.426667,-0.96 0.426667,-1.792 0,-0.832 -0.192,-1.344 -0.170667,-0.533333 -0.384,-0.832 -0.213334,-0.32 -0.725334,-0.64 -0.490666,-0.32 -0.768,-0.426667 -0.277333,-0.128 -0.96,-0.426666 L 45.499167,38.421332 Q 44.8805,38.122665 44.8805,37.055999 q 0,-0.704 0.32,-1.194667 0.341334,-0.512 1.109334,-0.512 0.768,0 1.28,0.533333 0.533333,0.512 0.725333,1.237334 0.298667,0.064 0.661333,0.064 z"
         style="font-style:normal;font-variant:normal;font-weight:normal;font-stretch:normal;font-size:21.33333397px;line-height:1;font-family:'Londrina Sketch';-inkscape-font-specification:'Londrina Sketch, Normal';font-variant-ligatures:normal;font-variant-caps:normal;font-variant-numeric:normal;font-feature-settings:normal;text-align:start;letter-spacing:0px;word-spacing:0px;writing-mode:lr-tb;text-anchor:start;fill:#ff5454;fill-opacity:1;stroke:none;stroke-width:1px;stroke-linecap:butt;stroke-linejoin:miter;stroke-opacity:1"
         id="path931"
         inkscape:connector-curvature="0" />
      <path
         d="m 60.803168,35.626665 q -0.192,0.106667 -0.192,0.234667 0,0.106667 -0.02133,0.106667 l -0.192,-0.02133 q -0.04267,0.04267 -0.256,0.02133 -0.213333,-0.02133 -0.341333,-0.02133 l -0.704,0.04267 q -0.234667,0 -0.256,-0.02133 l -0.810667,0.04267 q -0.08533,0.192 -0.08533,0.768 l 0.02133,0.576 -0.04267,2.325334 q 0,0.768 0.064,0.981333 0.08533,0.213333 0.08533,1.152 l -0.08533,2.709334 q 0,0.768 0.128,2.773333 l -0.234667,0.128 -0.04267,-0.04267 q -1.450666,0.08533 -3.178667,0.08533 l -0.02133,-0.04267 0.08533,-0.277333 V 47.104 q 0.02133,-0.192 0.02133,-0.362667 v -0.192 q -0.04267,-0.32 -0.08533,-0.405333 l -0.04267,0.128 v 0.32 q 0,0.213333 -0.08533,0.298667 v -0.08533 q 0.106667,-1.216 0.106667,-2.197333 l -0.02133,-1.6 q 0.04267,-0.256 0.064,-0.277334 -0.02133,-0.362666 -0.02133,-0.512 l 0.02133,-0.426666 v -0.064 q 0.106666,-0.277334 0.106666,-0.512 0,-0.234667 -0.04267,-0.277334 l -0.04267,-0.213333 0.04267,-0.810667 q 0,-0.213333 -0.04267,-0.512 l 0.08533,0.04267 q 0.02133,-0.02133 0.02133,-0.149333 0,-0.128 -0.064,-0.192 -0.02133,-0.192 -0.02133,-0.405334 v -0.106666 h -0.04267 l 0.02133,-0.149334 -0.08533,-1.856 -0.02133,-0.32 0.128,-0.298666 q -0.128,0 -0.448,-0.08533 -0.192,0.08533 -0.576,0.08533 l -0.704,-0.02133 -0.661333,0.02133 q -0.32,0 -0.448,-0.04267 -0.04267,-0.234667 -0.04267,-0.981333 v -0.576 q 0,-0.448 -0.02133,-0.64 l -0.04267,-0.512 q 0,-0.277334 0.106667,-0.597334 l -0.08533,-0.149333 h 0.02133 l 0.533333,0.04267 q 0.533334,0.04267 0.853334,0.04267 0.341333,0 0.682666,-0.04267 l 0.810667,0.02133 0.64,0.02133 q 1.152,0 1.856,-0.08533 l 0.08533,0.064 q 1.664,0.106667 3.114666,0.106667 0.277334,0 0.469334,0.149333 l -0.02133,0.768 -0.02133,-0.02133 -0.04267,0.064 z m -2.261334,0.02133 1.962667,-0.106667 0.064,-2.197333 q 0,-0.490667 -0.213333,-0.490667 h -0.32 q -0.170667,0 -0.32,0.08533 -0.064,0 -0.08533,-0.02133 0.02133,-0.02133 0.02133,-0.128 v -0.02133 q -0.170667,0.170666 -0.277334,0.170666 -0.08533,0 -0.149333,-0.08533 -0.02133,0.08533 -0.106667,0.08533 -0.08533,0 -0.106666,0 -0.02133,-0.02133 -0.064,-0.02133 l 0.08533,-0.04267 h -0.149333 v 0.064 l -0.04267,0.02133 h -0.04267 l 0.02133,-0.02133 q -0.149334,-0.064 -1.664,-0.064 -1.514667,0 -2.730667,0.08533 -0.08533,-0.02133 -0.08533,-0.064 l -1.130666,-0.064 -0.064,0.08533 q -0.213334,-0.04267 -0.234667,-0.04267 l -0.682667,0.064 q -0.192,0 -0.213333,-0.02133 v 0.064 l -0.02133,0.405333 q 0,0.298667 0.08533,0.661334 l 0.04267,0.256 v 0.554666 q 0,0.469334 0.04267,0.746667 0.426667,0.128 1.109334,0.128 l 1.557333,-0.04267 q 0.277333,0.08533 0.277333,0.106667 -0.02133,0.064 -0.064,0.490667 0.064,1.536 0.064,3.136 l -0.106666,7.445333 q 0,0.149334 2.56,0.32 l 0.106667,-1.109333 v -2.410667 q 0,-0.341333 0.02133,-0.490666 l -0.106667,-6.442667 -0.04267,-0.213334 0.02133,-0.32 q 0,-0.04267 -0.02133,-0.149333 0.064,-0.08533 0.128,-0.213333 0.08533,-0.234667 0.149333,-0.234667 v -0.02133 l 0.554667,0.064 z"
         style="font-style:normal;font-variant:normal;font-weight:normal;font-stretch:normal;font-size:21.33333397px;line-height:1;font-family:'Londrina Sketch';-inkscape-font-specification:'Londrina Sketch, Normal';font-variant-ligatures:normal;font-variant-caps:normal;font-variant-numeric:normal;font-feature-settings:normal;text-align:start;letter-spacing:0px;word-spacing:0px;writing-mode:lr-tb;text-anchor:start;fill:#ff5454;fill-opacity:1;stroke:none;stroke-width:1px;stroke-linecap:butt;stroke-linejoin:miter;stroke-opacity:1"
         id="path933"
         inkscape:connector-curvature="0" />
      <path
         d="m 65.615499,45.717332 -0.08533,-0.533333 v -0.064 q 0.04267,-0.064 0.08533,-0.064 l 0.106667,0.02133 q 0.04267,0 0.064,-0.02133 v -0.02133 q 0.106667,0 0.106667,-0.04267 0.96,-0.490667 0.96,-2.218667 v -0.554667 q 0,-1.28 0.554667,-1.770666 l 0.02133,-0.04267 q 0.04267,-0.04267 0.04267,-0.064 h 0.04267 l 0.08533,-0.064 0.02133,-0.02133 q -0.149333,-0.08533 -0.192,-0.149334 h -0.04267 q 0,-0.02133 -0.02133,-0.04267 h -0.04267 l -0.064,-0.08533 h -0.04267 l -0.02133,-0.08533 q -0.128,-0.128 -0.170667,-0.362667 l -0.04267,-0.08533 q -0.02133,-0.02133 -0.02133,-0.213333 h -0.02133 q -0.04267,-0.298667 -0.04267,-0.362667 l -0.04267,-0.810667 v -0.170666 l 0.02133,-0.725334 v -0.426666 q 0,-1.237334 -0.64,-1.237334 l -0.04267,-0.04267 -0.277333,-0.02133 v -0.02133 l -0.192,-0.064 q -0.128,-0.04267 -0.128,-0.192 h 0.04267 q 0.02133,-0.02133 0.02133,-0.170667 v -0.426666 q -0.04267,-0.128 -0.04267,-0.213334 v -1.237333 q 0,-0.08533 -0.04267,-0.298667 0.149333,-0.149333 0.554666,-0.149333 h 0.704 q 2.858667,0 2.858667,2.517333 l -0.04267,1.28 q 0,0.896 0.426666,1.6 0.426667,0.704 1.28,0.704 l 0.405334,-0.02133 q 0.298666,0 0.362666,0.128 0.08533,0.128 0.08533,0.554667 0,0.426666 -0.08533,0.576 h -0.02133 l -0.04267,0.384 q 0.064,0.341333 0.04267,0.704 0,0.341333 -0.192,0.448 -0.170667,0.106666 -0.469333,0.128 -0.277334,0.02133 -0.384,0.08533 -1.493334,0.597333 -1.493334,3.413334 l 0.02133,0.448 q 0,0.874666 -0.533334,1.130666 v 0.04267 H 69.0075 q -0.04267,0.170667 -0.170667,0.192 v 0.04267 q -0.170667,0.106666 -0.170667,0.128 l -0.213333,0.08533 q -0.02133,0.02133 -0.02133,0.04267 -0.128,0.02133 -0.128,0.064 h -0.04267 l -0.170667,0.08533 v 0.02133 l -0.362666,0.08533 -0.256,0.04267 q -0.426667,0.106667 -0.874667,0.106667 h -0.149334 l -0.426666,-0.02133 q -0.064,0 -0.08533,0.02133 l -0.106666,-0.02133 q -0.064,0 -0.08533,-0.02133 v 0.02133 q -0.106666,0 -0.128,0.02133 v -0.04267 q -0.02133,-0.02133 -0.04267,-0.02133 0,-0.064 0.02133,-0.08533 l -0.02133,-0.064 -0.02133,-0.64 q 0,-0.277334 0.02133,-0.298667 l -0.02133,-0.32 0.04267,-0.384 q 0.02133,-0.02133 0.02133,-0.106667 z m 1.429334,-7.808 -0.02133,0.170667 v 0.341333 l 0.08533,0.597333 q 0,0.128 0.02133,0.149334 h 0.02133 l 0.04267,0.128 q 0,0.192 0.08533,0.277333 l 0.170666,0.213333 h 0.04267 q 0,0.106667 0.597333,0.298667 l 0.064,0.08533 v 0.106667 q -0.02133,0 -0.04267,0.02133 v 0.04267 q -0.02133,0 -0.04267,0.02133 l -0.064,0.02133 -0.08533,0.106666 -0.106667,0.064 q -0.234667,0.234667 -0.362667,0.234667 v 0.064 q -0.02133,0.064 -0.106666,0.128 v 0.04267 q 0,0.02133 -0.04267,0.08533 -0.04267,0.04267 -0.064,0.04267 l -0.128,0.682666 q -0.04267,0.213334 -0.04267,0.298667 l -0.02133,1.194667 q 0,0.234667 0.02133,0.341333 l -0.04267,0.277334 -0.08533,0.256 q -0.02133,0.02133 -0.02133,0.128 h -0.02133 q -0.02133,0.02133 -0.02133,0.08533 h -0.02133 q -0.02133,0.064 -0.02133,0.149333 0,0.064 -0.02133,0.064 l -0.08533,0.170667 q -0.04267,0.04267 -0.128,0.106667 -0.064,0.064 -0.08533,0.106666 l -0.234666,0.149334 -0.490667,0.106666 v 0.618667 q 0.064,0.192 0.064,0.213333 l -0.04267,0.32 0.02133,0.512 q 0,0.192 -0.02133,0.213334 l 0.02133,0.277333 q 0.106666,0 0.256,-0.106667 l 0.02133,0.02133 -0.04267,0.128 0.170667,0.02133 v 0.02133 q 0.384,0 1.386667,-0.149333 v -0.02133 l 0.128,-0.02133 v -0.02133 l 0.106667,-0.04267 q 0.08533,0 0.341333,-0.149333 l -0.02133,0.02133 q -0.02133,0 0.08533,-0.106666 0.298667,-0.384 0.64,-0.512 l 0.02133,-0.02133 0.02133,0.04267 q 0.02133,-0.02133 0,-0.04267 0,-0.04267 0,-0.064 0.234666,-0.234666 0.341333,-0.490666 0,-0.064 -0.064,-0.08533 v -0.064 l 0.064,0.02133 v -0.064 l -0.04267,-0.02133 q 0.04267,-0.04267 0.106667,-0.256 h -0.04267 q 0.04267,-0.234666 0.128,-0.32 v -0.746666 l -0.04267,-0.384 0.02133,-0.106667 0.02133,-1.066667 q 0,-0.170667 0.064,-0.170667 l 0.192,-0.405333 q 0,-0.08533 0.02133,-0.106667 h 0.02133 q 0,-0.128 0.064,-0.128 v -0.04267 l 0.149333,-0.149334 h 0.04267 q 0.149333,-0.149333 0.192,-0.149333 v -0.04267 h 0.04267 l 0.064,-0.08533 0.597333,-0.213333 0.277333,-0.04267 q 0.064,-0.02133 0.362667,-0.02133 0.298667,0 0.298667,-0.277334 l -0.02133,-0.298666 0.02133,-0.426667 q 0,-0.02133 -0.04267,-0.32 L 71.7595,39.338665 q 0,-0.149333 -0.064,-0.213333 l -0.08533,0.02133 -0.277333,-0.04267 q -0.02133,-0.02133 -0.170667,-0.02133 l -0.256,-0.02133 -0.213333,-0.04267 q -0.469333,-0.192 -0.682667,-0.405333 H 69.9675 q -0.04267,-0.04267 -0.04267,-0.064 h -0.04267 l -0.149333,-0.149333 v -0.04267 q -0.02133,-0.02133 -0.04267,-0.02133 v -0.04267 q -0.064,0 -0.106666,-0.192 l -0.04267,-0.064 -0.170667,-0.512 0.04267,-0.256 H 69.3915 l 0.02133,-0.08533 -0.02133,-0.448 v -0.08533 h 0.02133 q 0.02133,-0.02133 0.02133,-0.128 v -0.192 l -0.064,-0.704 q 0,-0.04267 0.02133,-0.04267 v -0.106667 h -0.064 v -0.874667 q 0,-0.149333 -0.02133,-0.192 l -0.149333,-0.490666 -0.08533,-0.064 v -0.04267 l -0.256,-0.256 h -0.04267 l -0.192,-0.192 h -0.04267 l -0.213333,-0.08533 q -0.149333,0 -0.170667,-0.02133 l -0.149333,-0.04267 Q 67.4715,33.045332 67.4075,33.109332 v -0.02133 l -0.02133,0.02133 -0.234667,-0.02133 h -0.384 l -0.106666,-0.02133 -0.02133,0.02133 h -0.448 q -0.064,0 -0.08533,0.02133 l -0.213333,-0.02133 q -0.02133,0 -0.02133,0.04267 l -0.02133,0.170667 v 0.426667 q -0.02133,0.02133 -0.02133,0.234666 v 0.234667 q 0.02133,0.02133 0.02133,0.04267 h -0.02133 l 0.02133,0.192 -0.02133,0.04267 q 0.04267,0.04267 0.04267,0.234667 l -0.02133,0.256 0.04267,0.149333 q 0.02133,0.02133 0.08533,0.02133 v 0.02133 q 0.298667,0.04267 0.32,0.04267 v 0.02133 q 0.064,0 0.256,0.128 h 0.04267 l 0.149333,0.106667 q 0.08533,0 0.234667,0.469333 l 0.064,0.938667 -0.02133,1.002666 z m 1.130667,9.194667 v -0.02133 q 0,-0.02133 0.02133,-0.02133 v 0.04267 z"
         style="font-style:normal;font-variant:normal;font-weight:normal;font-stretch:normal;font-size:21.33333397px;line-height:1;font-family:'Londrina Sketch';-inkscape-font-specification:'Londrina Sketch, Normal';font-variant-ligatures:normal;font-variant-caps:normal;font-variant-numeric:normal;font-feature-settings:normal;text-align:start;letter-spacing:0px;word-spacing:0px;writing-mode:lr-tb;text-anchor:start;fill:#000000;fill-opacity:1;stroke:none;stroke-width:1px;stroke-linecap:butt;stroke-linejoin:miter;stroke-opacity:1"
         id="path935"
         inkscape:connector-curvature="0" />
    </g>
  </g>
</svg>
